G04*
G04 #@! TF.GenerationSoftware,Altium Limited,Altium Designer,19.1.8 (144)*
G04*
G04 Layer_Color=65535*
%FSLAX24Y24*%
%MOIN*%
G70*
G01*
G75*
%ADD10C,0.0100*%
%ADD11C,0.0079*%
D10*
X3370Y29291D02*
G03*
X3370Y29291I-591J0D01*
G01*
X12240Y23980D02*
G03*
X12240Y23980I-591J0D01*
G01*
X3370Y18673D02*
G03*
X3370Y18673I-591J0D01*
G01*
X20630Y32953D02*
G03*
X20630Y32953I-2598J0D01*
G01*
X29101Y29439D02*
Y36639D01*
Y29439D02*
X46301D01*
Y36639D01*
X29101D02*
X46301D01*
X22520Y29250D02*
X22668D01*
Y30236D01*
X21268Y29264D02*
Y30250D01*
X21270Y29250D02*
X21418D01*
X34228Y5444D02*
Y7194D01*
X35128Y5128D02*
X35778D01*
X36578Y5444D02*
Y7194D01*
X35128Y7494D02*
X35778D01*
X41215Y9970D02*
Y10620D01*
X39165Y9170D02*
X40915D01*
X38848Y9970D02*
Y10620D01*
X39165Y11520D02*
X40915D01*
X39165Y7465D02*
X40915D01*
X38848Y5915D02*
Y6565D01*
X39165Y5115D02*
X40915D01*
X41215Y5915D02*
Y6565D01*
Y2018D02*
Y2668D01*
X39165Y1218D02*
X40915D01*
X38848Y2018D02*
Y2668D01*
X39165Y3568D02*
X40915D01*
X43519Y5444D02*
Y7194D01*
X44419Y5128D02*
X45069D01*
X45869Y5444D02*
Y7194D01*
X44419Y7494D02*
X45069D01*
X17846Y4476D02*
Y4776D01*
Y4476D02*
X19296D01*
Y4776D01*
X17846Y8026D02*
X19296D01*
X17846Y7726D02*
Y8026D01*
X19296Y7726D02*
Y8026D01*
X23587Y7726D02*
Y8026D01*
X22137Y7726D02*
Y8026D01*
X23587D01*
Y4476D02*
Y4776D01*
X22137Y4476D02*
X23587D01*
X22137D02*
Y4776D01*
X26428Y4476D02*
Y4776D01*
Y4476D02*
X27878D01*
Y4776D01*
X26428Y8026D02*
X27878D01*
X26428Y7726D02*
Y8026D01*
X27878Y7726D02*
Y8026D01*
X32130Y7726D02*
Y8026D01*
X30680Y7726D02*
Y8026D01*
X32130D01*
Y4476D02*
Y4776D01*
X30680Y4476D02*
X32130D01*
X30680D02*
Y4776D01*
X14393Y27843D02*
X46393D01*
X46393Y13143D01*
X14393D02*
X46393D01*
X14393D02*
Y27843D01*
X1046Y13108D02*
Y34908D01*
X13246D01*
Y13108D02*
Y34908D01*
X1046Y13108D02*
X13246D01*
X1172Y7485D02*
X3622D01*
X1172D02*
Y10135D01*
X3622D01*
Y7485D02*
Y10135D01*
X7795Y7485D02*
Y10135D01*
X5345D02*
X7795D01*
X5345Y7485D02*
Y10135D01*
Y7485D02*
X7795D01*
X9479D02*
X11929D01*
X9479D02*
Y10135D01*
X11929D01*
Y7485D02*
Y10135D01*
X15944Y7485D02*
Y10135D01*
X13494D02*
X15944D01*
X13494Y7485D02*
Y10135D01*
Y7485D02*
X15944D01*
X13494Y2209D02*
X15944D01*
X13494D02*
Y4859D01*
X15944D01*
Y2209D02*
Y4859D01*
X11929Y2209D02*
Y4859D01*
X9479D02*
X11929D01*
X9479Y2209D02*
Y4859D01*
Y2209D02*
X11929D01*
X5345D02*
X7795D01*
X5345D02*
Y4859D01*
X7795D01*
Y2209D02*
Y4859D01*
X3622Y2209D02*
Y4859D01*
X1172D02*
X3622D01*
X1172Y2209D02*
Y4859D01*
Y2209D02*
X3622D01*
X23659Y31718D02*
X26759D01*
Y34018D01*
X23659D02*
X26759D01*
X23659Y31718D02*
Y34018D01*
X28937Y2402D02*
Y3001D01*
X29237D01*
X29337Y2901D01*
Y2701D01*
X29237Y2602D01*
X28937D01*
X29137D02*
X29337Y2402D01*
X29837D02*
X29637D01*
X29537Y2502D01*
Y2701D01*
X29637Y2801D01*
X29837D01*
X29937Y2701D01*
Y2602D01*
X29537D01*
X30137Y2801D02*
X30337Y2402D01*
X30536Y2801D01*
X31336Y2402D02*
X31536D01*
X31436D01*
Y3001D01*
X31336Y2901D01*
X31836Y2402D02*
Y2502D01*
X31936D01*
Y2402D01*
X31836D01*
X32336Y2901D02*
X32436Y3001D01*
X32636D01*
X32736Y2901D01*
Y2502D01*
X32636Y2402D01*
X32436D01*
X32336Y2502D01*
Y2901D01*
X20591Y1957D02*
X20757D01*
X20674D01*
Y1457D01*
X20591D01*
X20757D01*
X21007D02*
Y1790D01*
X21257D01*
X21340Y1707D01*
Y1457D01*
X21590Y1873D02*
Y1790D01*
X21507D01*
X21674D01*
X21590D01*
Y1540D01*
X21674Y1457D01*
X21923Y1790D02*
Y1457D01*
Y1623D01*
X22007Y1707D01*
X22090Y1790D01*
X22173D01*
X22507Y1457D02*
X22673D01*
X22757Y1540D01*
Y1707D01*
X22673Y1790D01*
X22507D01*
X22423Y1707D01*
Y1540D01*
X22507Y1457D01*
X23256Y1957D02*
Y1457D01*
X23006D01*
X22923Y1540D01*
Y1707D01*
X23006Y1790D01*
X23256D01*
X23423D02*
Y1540D01*
X23506Y1457D01*
X23756D01*
Y1790D01*
X24256D02*
X24006D01*
X23923Y1707D01*
Y1540D01*
X24006Y1457D01*
X24256D01*
X24506Y1873D02*
Y1790D01*
X24423D01*
X24589D01*
X24506D01*
Y1540D01*
X24589Y1457D01*
X24922D02*
X25089D01*
X25172Y1540D01*
Y1707D01*
X25089Y1790D01*
X24922D01*
X24839Y1707D01*
Y1540D01*
X24922Y1457D01*
X25339Y1790D02*
Y1457D01*
Y1623D01*
X25422Y1707D01*
X25506Y1790D01*
X25589D01*
X25839D02*
Y1540D01*
X25922Y1457D01*
X26172D01*
Y1373D01*
X26089Y1290D01*
X26005D01*
X26172Y1457D02*
Y1790D01*
X27172Y1873D02*
X27088Y1957D01*
X26922D01*
X26839Y1873D01*
Y1540D01*
X26922Y1457D01*
X27088D01*
X27172Y1540D01*
X27422Y1457D02*
X27588D01*
X27672Y1540D01*
Y1707D01*
X27588Y1790D01*
X27422D01*
X27338Y1707D01*
Y1540D01*
X27422Y1457D01*
X28171Y1957D02*
Y1457D01*
X27922D01*
X27838Y1540D01*
Y1707D01*
X27922Y1790D01*
X28171D01*
X28338Y1457D02*
X28505D01*
X28421D01*
Y1790D01*
X28338D01*
X28755Y1457D02*
Y1790D01*
X29004D01*
X29088Y1707D01*
Y1457D01*
X29421Y1290D02*
X29504D01*
X29588Y1373D01*
Y1790D01*
X29338D01*
X29254Y1707D01*
Y1540D01*
X29338Y1457D01*
X29588D01*
X30587Y1957D02*
X30254D01*
Y1457D01*
X30587D01*
X30254Y1707D02*
X30421D01*
X30754Y1790D02*
X31087Y1457D01*
X30921Y1623D01*
X31087Y1790D01*
X30754Y1457D01*
X31254Y1290D02*
Y1790D01*
X31504D01*
X31587Y1707D01*
Y1540D01*
X31504Y1457D01*
X31254D01*
X32004D02*
X31837D01*
X31754Y1540D01*
Y1707D01*
X31837Y1790D01*
X32004D01*
X32087Y1707D01*
Y1623D01*
X31754D01*
X32253Y1790D02*
Y1457D01*
Y1623D01*
X32337Y1707D01*
X32420Y1790D01*
X32503D01*
X32753Y1457D02*
X32920D01*
X32837D01*
Y1790D01*
X32753D01*
X33420Y1457D02*
X33253D01*
X33170Y1540D01*
Y1707D01*
X33253Y1790D01*
X33420D01*
X33503Y1707D01*
Y1623D01*
X33170D01*
X33670Y1457D02*
Y1790D01*
X33920D01*
X34003Y1707D01*
Y1457D01*
X34503Y1790D02*
X34253D01*
X34169Y1707D01*
Y1540D01*
X34253Y1457D01*
X34503D01*
X34919D02*
X34753D01*
X34669Y1540D01*
Y1707D01*
X34753Y1790D01*
X34919D01*
X35003Y1707D01*
Y1623D01*
X34669D01*
X20591Y1051D02*
Y551D01*
X20840D01*
X20924Y634D01*
Y718D01*
X20840Y801D01*
X20591D01*
X20840D01*
X20924Y884D01*
Y968D01*
X20840Y1051D01*
X20591D01*
X21090Y884D02*
Y551D01*
Y718D01*
X21174Y801D01*
X21257Y884D01*
X21340D01*
X21590Y551D02*
X21757D01*
X21674D01*
Y884D01*
X21590D01*
X22173Y385D02*
X22257D01*
X22340Y468D01*
Y884D01*
X22090D01*
X22007Y801D01*
Y634D01*
X22090Y551D01*
X22340D01*
X22507Y1051D02*
Y551D01*
Y801D01*
X22590Y884D01*
X22757D01*
X22840Y801D01*
Y551D01*
X23090Y884D02*
X23256D01*
X23340Y801D01*
Y551D01*
X23090D01*
X23006Y634D01*
X23090Y718D01*
X23340D01*
X23506Y551D02*
Y884D01*
X23590D01*
X23673Y801D01*
Y551D01*
Y801D01*
X23756Y884D01*
X23839Y801D01*
Y551D01*
X24506Y1051D02*
Y968D01*
X24673Y801D01*
X24839Y968D01*
Y1051D01*
X24673Y801D02*
Y551D01*
X25089D02*
X25256D01*
X25339Y634D01*
Y801D01*
X25256Y884D01*
X25089D01*
X25006Y801D01*
Y634D01*
X25089Y551D01*
X25506Y884D02*
Y634D01*
X25589Y551D01*
X25839D01*
Y884D01*
X26005Y551D02*
Y884D01*
X26255D01*
X26339Y801D01*
Y551D01*
X26672Y385D02*
X26755D01*
X26839Y468D01*
Y884D01*
X26589D01*
X26505Y801D01*
Y634D01*
X26589Y551D01*
X26839D01*
X27505Y1051D02*
Y634D01*
X27588Y551D01*
X27755D01*
X27838Y634D01*
Y1051D01*
X28005Y551D02*
Y884D01*
X28255D01*
X28338Y801D01*
Y551D01*
X28505D02*
X28671D01*
X28588D01*
Y884D01*
X28505D01*
X28921D02*
X29088Y551D01*
X29254Y884D01*
X29671Y551D02*
X29504D01*
X29421Y634D01*
Y801D01*
X29504Y884D01*
X29671D01*
X29754Y801D01*
Y718D01*
X29421D01*
X29921Y884D02*
Y551D01*
Y718D01*
X30004Y801D01*
X30087Y884D01*
X30171D01*
X30421Y551D02*
X30671D01*
X30754Y634D01*
X30671Y718D01*
X30504D01*
X30421Y801D01*
X30504Y884D01*
X30754D01*
X30921Y551D02*
X31087D01*
X31004D01*
Y884D01*
X30921D01*
X31420Y968D02*
Y884D01*
X31337D01*
X31504D01*
X31420D01*
Y634D01*
X31504Y551D01*
X31754Y884D02*
Y634D01*
X31837Y551D01*
X32087D01*
Y468D01*
X32004Y385D01*
X31920D01*
X32087Y551D02*
Y884D01*
X20551Y3401D02*
X20884D01*
X20718D01*
Y2402D01*
X20551D01*
X20884D01*
X22051Y3235D02*
X21884Y3401D01*
X21551D01*
X21384Y3235D01*
Y2568D01*
X21551Y2402D01*
X21884D01*
X22051Y2568D01*
X23050Y3401D02*
X22384D01*
Y2402D01*
X23050D01*
X22384Y2901D02*
X22717D01*
X23384Y3401D02*
Y2402D01*
X23883D01*
X24050Y2568D01*
Y2735D01*
X23883Y2901D01*
X23384D01*
X23883D01*
X24050Y3068D01*
Y3235D01*
X23883Y3401D01*
X23384D01*
X24550Y2402D02*
X24883D01*
X25050Y2568D01*
Y2901D01*
X24883Y3068D01*
X24550D01*
X24383Y2901D01*
Y2568D01*
X24550Y2402D01*
X25550Y3068D02*
X25883D01*
X26049Y2901D01*
Y2402D01*
X25550D01*
X25383Y2568D01*
X25550Y2735D01*
X26049D01*
X26383Y3068D02*
Y2402D01*
Y2735D01*
X26549Y2901D01*
X26716Y3068D01*
X26882D01*
X28049Y3401D02*
Y2402D01*
X27549D01*
X27382Y2568D01*
Y2901D01*
X27549Y3068D01*
X28049D01*
X10597Y36405D02*
X10497Y36505D01*
X10297D01*
X10197Y36405D01*
Y36005D01*
X10297Y35906D01*
X10497D01*
X10597Y36005D01*
X10797D02*
X10897Y35906D01*
X11097D01*
X11197Y36005D01*
Y36405D01*
X11097Y36505D01*
X10897D01*
X10797Y36405D01*
Y36305D01*
X10897Y36205D01*
X11197D01*
X45433Y29064D02*
Y28565D01*
X45533Y28465D01*
X45733D01*
X45833Y28565D01*
Y29064D01*
X46033Y28465D02*
X46233D01*
X46133D01*
Y29064D01*
X46033Y28964D01*
X29390Y9921D02*
Y10521D01*
X29690D01*
X29790Y10421D01*
Y10221D01*
X29690Y10121D01*
X29390D01*
X29590D02*
X29790Y9921D01*
X30389Y10521D02*
X29990D01*
Y10221D01*
X30190Y10321D01*
X30289D01*
X30389Y10221D01*
Y10021D01*
X30289Y9921D01*
X30090D01*
X29990Y10021D01*
X25335Y9961D02*
Y10560D01*
X25635D01*
X25735Y10460D01*
Y10261D01*
X25635Y10161D01*
X25335D01*
X25535D02*
X25735Y9961D01*
X26234D02*
Y10560D01*
X25934Y10261D01*
X26334D01*
X45362Y12805D02*
Y12305D01*
X45462Y12205D01*
X45662D01*
X45762Y12305D01*
Y12805D01*
X46362Y12205D02*
X45962D01*
X46362Y12605D01*
Y12705D01*
X46262Y12805D01*
X46062D01*
X45962Y12705D01*
X20846Y10000D02*
Y10600D01*
X21146D01*
X21246Y10500D01*
Y10300D01*
X21146Y10200D01*
X20846D01*
X21046D02*
X21246Y10000D01*
X21446Y10500D02*
X21546Y10600D01*
X21746D01*
X21846Y10500D01*
Y10400D01*
X21746Y10300D01*
X21646D01*
X21746D01*
X21846Y10200D01*
Y10100D01*
X21746Y10000D01*
X21546D01*
X21446Y10100D01*
X30130Y9030D02*
X30030Y9130D01*
X29830D01*
X29730Y9030D01*
Y8930D01*
X29830Y8830D01*
X30030D01*
X30130Y8730D01*
Y8630D01*
X30030Y8530D01*
X29830D01*
X29730Y8630D01*
X30630Y8530D02*
Y9130D01*
X30330Y8830D01*
X30730D01*
X25880Y9030D02*
X25780Y9130D01*
X25580D01*
X25480Y9030D01*
Y8930D01*
X25580Y8830D01*
X25780D01*
X25880Y8730D01*
Y8630D01*
X25780Y8530D01*
X25580D01*
X25480Y8630D01*
X26080Y9030D02*
X26180Y9130D01*
X26380D01*
X26480Y9030D01*
Y8930D01*
X26380Y8830D01*
X26280D01*
X26380D01*
X26480Y8730D01*
Y8630D01*
X26380Y8530D01*
X26180D01*
X26080Y8630D01*
X21590Y9030D02*
X21490Y9130D01*
X21290D01*
X21190Y9030D01*
Y8930D01*
X21290Y8830D01*
X21490D01*
X21590Y8730D01*
Y8630D01*
X21490Y8530D01*
X21290D01*
X21190Y8630D01*
X22190Y8530D02*
X21790D01*
X22190Y8930D01*
Y9030D01*
X22090Y9130D01*
X21890D01*
X21790Y9030D01*
X17300D02*
X17200Y9130D01*
X17000D01*
X16900Y9030D01*
Y8930D01*
X17000Y8830D01*
X17200D01*
X17300Y8730D01*
Y8630D01*
X17200Y8530D01*
X17000D01*
X16900Y8630D01*
X17500Y8530D02*
X17700D01*
X17600D01*
Y9130D01*
X17500Y9030D01*
X1660Y1760D02*
X1560Y1860D01*
X1360D01*
X1260Y1760D01*
Y1360D01*
X1360Y1260D01*
X1560D01*
X1660Y1360D01*
X1860Y1760D02*
X1960Y1860D01*
X2160D01*
X2260Y1760D01*
Y1660D01*
X2160Y1560D01*
X2260Y1460D01*
Y1360D01*
X2160Y1260D01*
X1960D01*
X1860Y1360D01*
Y1460D01*
X1960Y1560D01*
X1860Y1660D01*
Y1760D01*
X1960Y1560D02*
X2160D01*
X6227Y1720D02*
X6127Y1820D01*
X5927D01*
X5827Y1720D01*
Y1320D01*
X5927Y1220D01*
X6127D01*
X6227Y1320D01*
X6427Y1820D02*
X6826D01*
Y1720D01*
X6427Y1320D01*
Y1220D01*
X10339Y1720D02*
X10239Y1820D01*
X10039D01*
X9939Y1720D01*
Y1320D01*
X10039Y1220D01*
X10239D01*
X10339Y1320D01*
X10939Y1820D02*
X10739Y1720D01*
X10539Y1520D01*
Y1320D01*
X10639Y1220D01*
X10839D01*
X10939Y1320D01*
Y1420D01*
X10839Y1520D01*
X10539D01*
X14258Y1602D02*
X14158Y1702D01*
X13958D01*
X13858Y1602D01*
Y1202D01*
X13958Y1102D01*
X14158D01*
X14258Y1202D01*
X14858Y1702D02*
X14458D01*
Y1402D01*
X14658Y1502D01*
X14758D01*
X14858Y1402D01*
Y1202D01*
X14758Y1102D01*
X14558D01*
X14458Y1202D01*
X14258Y6957D02*
X14158Y7056D01*
X13958D01*
X13858Y6957D01*
Y6557D01*
X13958Y6457D01*
X14158D01*
X14258Y6557D01*
X14758Y6457D02*
Y7056D01*
X14458Y6757D01*
X14858D01*
X10144Y6957D02*
X10044Y7056D01*
X9844D01*
X9744Y6957D01*
Y6557D01*
X9844Y6457D01*
X10044D01*
X10144Y6557D01*
X10344Y6957D02*
X10444Y7056D01*
X10644D01*
X10744Y6957D01*
Y6857D01*
X10644Y6757D01*
X10544D01*
X10644D01*
X10744Y6657D01*
Y6557D01*
X10644Y6457D01*
X10444D01*
X10344Y6557D01*
X6207Y7035D02*
X6107Y7135D01*
X5907D01*
X5807Y7035D01*
Y6635D01*
X5907Y6535D01*
X6107D01*
X6207Y6635D01*
X6807Y6535D02*
X6407D01*
X6807Y6935D01*
Y7035D01*
X6707Y7135D01*
X6507D01*
X6407Y7035D01*
X2290Y6996D02*
X2190Y7096D01*
X1990D01*
X1890Y6996D01*
Y6596D01*
X1990Y6496D01*
X2190D01*
X2290Y6596D01*
X2490Y6496D02*
X2690D01*
X2590D01*
Y7096D01*
X2490Y6996D01*
X45512Y2402D02*
Y3001D01*
X45812D01*
X45912Y2901D01*
Y2701D01*
X45812Y2602D01*
X45512D01*
X45712D02*
X45912Y2402D01*
X46112D02*
X46312D01*
X46212D01*
Y3001D01*
X46112Y2901D01*
X46611D02*
X46711Y3001D01*
X46911D01*
X47011Y2901D01*
Y2502D01*
X46911Y2402D01*
X46711D01*
X46611Y2502D01*
Y2901D01*
X45512Y1457D02*
Y2057D01*
X45812D01*
X45912Y1957D01*
Y1757D01*
X45812Y1657D01*
X45512D01*
X45712D02*
X45912Y1457D01*
X46112Y1557D02*
X46212Y1457D01*
X46412D01*
X46511Y1557D01*
Y1957D01*
X46412Y2057D01*
X46212D01*
X46112Y1957D01*
Y1857D01*
X46212Y1757D01*
X46511D01*
X45354Y9961D02*
Y10560D01*
X45654D01*
X45754Y10460D01*
Y10261D01*
X45654Y10161D01*
X45354D01*
X45554D02*
X45754Y9961D01*
X45954Y10460D02*
X46054Y10560D01*
X46254D01*
X46354Y10460D01*
Y10360D01*
X46254Y10261D01*
X46354Y10161D01*
Y10061D01*
X46254Y9961D01*
X46054D01*
X45954Y10061D01*
Y10161D01*
X46054Y10261D01*
X45954Y10360D01*
Y10460D01*
X46054Y10261D02*
X46254D01*
X45354Y10866D02*
Y11466D01*
X45654D01*
X45754Y11366D01*
Y11166D01*
X45654Y11066D01*
X45354D01*
X45554D02*
X45754Y10866D01*
X45954Y11466D02*
X46354D01*
Y11366D01*
X45954Y10966D01*
Y10866D01*
X36457Y9882D02*
Y10482D01*
X36757D01*
X36857Y10382D01*
Y10182D01*
X36757Y10082D01*
X36457D01*
X36657D02*
X36857Y9882D01*
X37456Y10482D02*
X37256Y10382D01*
X37057Y10182D01*
Y9982D01*
X37156Y9882D01*
X37356D01*
X37456Y9982D01*
Y10082D01*
X37356Y10182D01*
X37057D01*
X16398Y10000D02*
Y10600D01*
X16698D01*
X16798Y10500D01*
Y10300D01*
X16698Y10200D01*
X16398D01*
X16598D02*
X16798Y10000D01*
X17397D02*
X16997D01*
X17397Y10400D01*
Y10500D01*
X17297Y10600D01*
X17097D01*
X16997Y10500D01*
X17638Y36584D02*
Y35984D01*
X17938D01*
X18038Y36084D01*
Y36184D01*
X17938Y36284D01*
X17638D01*
X17938D01*
X18038Y36384D01*
Y36484D01*
X17938Y36584D01*
X17638D01*
X18238Y35984D02*
X18438D01*
X18338D01*
Y36584D01*
X18238Y36484D01*
X43820Y9190D02*
X43720Y9290D01*
X43520D01*
X43420Y9190D01*
Y9090D01*
X43520Y8990D01*
X43720D01*
X43820Y8890D01*
Y8790D01*
X43720Y8690D01*
X43520D01*
X43420Y8790D01*
X44020D02*
X44120Y8690D01*
X44320D01*
X44420Y8790D01*
Y9190D01*
X44320Y9290D01*
X44120D01*
X44020Y9190D01*
Y9090D01*
X44120Y8990D01*
X44420D01*
X38462Y4566D02*
X38362Y4666D01*
X38162D01*
X38062Y4566D01*
Y4466D01*
X38162Y4366D01*
X38362D01*
X38462Y4266D01*
Y4166D01*
X38362Y4066D01*
X38162D01*
X38062Y4166D01*
X38662Y4566D02*
X38762Y4666D01*
X38962D01*
X39062Y4566D01*
Y4466D01*
X38962Y4366D01*
X39062Y4266D01*
Y4166D01*
X38962Y4066D01*
X38762D01*
X38662Y4166D01*
Y4266D01*
X38762Y4366D01*
X38662Y4466D01*
Y4566D01*
X38762Y4366D02*
X38962D01*
X38462Y8466D02*
X38362Y8566D01*
X38162D01*
X38062Y8466D01*
Y8366D01*
X38162Y8266D01*
X38362D01*
X38462Y8166D01*
Y8066D01*
X38362Y7966D01*
X38162D01*
X38062Y8066D01*
X38662Y8566D02*
X39062D01*
Y8466D01*
X38662Y8066D01*
Y7966D01*
X38462Y12516D02*
X38362Y12616D01*
X38162D01*
X38062Y12516D01*
Y12416D01*
X38162Y12316D01*
X38362D01*
X38462Y12216D01*
Y12116D01*
X38362Y12016D01*
X38162D01*
X38062Y12116D01*
X39062Y12616D02*
X38862Y12516D01*
X38662Y12316D01*
Y12116D01*
X38762Y12016D01*
X38962D01*
X39062Y12116D01*
Y12216D01*
X38962Y12316D01*
X38662D01*
X34530Y9190D02*
X34430Y9290D01*
X34230D01*
X34130Y9190D01*
Y9090D01*
X34230Y8990D01*
X34430D01*
X34530Y8890D01*
Y8790D01*
X34430Y8690D01*
X34230D01*
X34130Y8790D01*
X35130Y9290D02*
X34730D01*
Y8990D01*
X34930Y9090D01*
X35030D01*
X35130Y8990D01*
Y8790D01*
X35030Y8690D01*
X34830D01*
X34730Y8790D01*
X20984Y29291D02*
X20384D01*
Y29591D01*
X20484Y29691D01*
X20684D01*
X20784Y29591D01*
Y29291D01*
Y29491D02*
X20984Y29691D01*
Y29891D02*
Y30091D01*
Y29991D01*
X20384D01*
X20484Y29891D01*
X12283Y12805D02*
Y12205D01*
Y12505D01*
X12683D01*
Y12805D01*
Y12205D01*
X12883D02*
X13083D01*
X12983D01*
Y12805D01*
X12883Y12705D01*
X1181Y5718D02*
Y5118D01*
X1481D01*
X1581Y5218D01*
Y5618D01*
X1481Y5718D01*
X1181D01*
X1781Y5618D02*
X1881Y5718D01*
X2081D01*
X2181Y5618D01*
Y5518D01*
X2081Y5418D01*
X2181Y5318D01*
Y5218D01*
X2081Y5118D01*
X1881D01*
X1781Y5218D01*
Y5318D01*
X1881Y5418D01*
X1781Y5518D01*
Y5618D01*
X1881Y5418D02*
X2081D01*
X5394Y5836D02*
Y5236D01*
X5694D01*
X5794Y5336D01*
Y5736D01*
X5694Y5836D01*
X5394D01*
X5994D02*
X6393D01*
Y5736D01*
X5994Y5336D01*
Y5236D01*
X9449Y5718D02*
Y5118D01*
X9749D01*
X9849Y5218D01*
Y5618D01*
X9749Y5718D01*
X9449D01*
X10448D02*
X10249Y5618D01*
X10049Y5418D01*
Y5218D01*
X10149Y5118D01*
X10349D01*
X10448Y5218D01*
Y5318D01*
X10349Y5418D01*
X10049D01*
X13465Y5836D02*
Y5236D01*
X13764D01*
X13864Y5336D01*
Y5736D01*
X13764Y5836D01*
X13465D01*
X14464D02*
X14064D01*
Y5536D01*
X14264Y5636D01*
X14364D01*
X14464Y5536D01*
Y5336D01*
X14364Y5236D01*
X14164D01*
X14064Y5336D01*
X24618Y35088D02*
X24818D01*
X24718D01*
Y34488D01*
X24618D01*
X24818D01*
X25118D02*
Y35088D01*
X25418D01*
X25518Y34988D01*
Y34788D01*
X25418Y34688D01*
X25118D01*
X25318D02*
X25518Y34488D01*
X25718D02*
X25918D01*
X25818D01*
Y35088D01*
X25718Y34988D01*
X13465Y11033D02*
Y10433D01*
X13764D01*
X13864Y10533D01*
Y10933D01*
X13764Y11033D01*
X13465D01*
X14364Y10433D02*
Y11033D01*
X14064Y10733D01*
X14464D01*
X9528Y11072D02*
Y10472D01*
X9827D01*
X9927Y10572D01*
Y10972D01*
X9827Y11072D01*
X9528D01*
X10127Y10972D02*
X10227Y11072D01*
X10427D01*
X10527Y10972D01*
Y10872D01*
X10427Y10772D01*
X10327D01*
X10427D01*
X10527Y10672D01*
Y10572D01*
X10427Y10472D01*
X10227D01*
X10127Y10572D01*
X5354Y10994D02*
Y10394D01*
X5654D01*
X5754Y10494D01*
Y10894D01*
X5654Y10994D01*
X5354D01*
X6354Y10394D02*
X5954D01*
X6354Y10794D01*
Y10894D01*
X6254Y10994D01*
X6054D01*
X5954Y10894D01*
X1220Y11112D02*
Y10512D01*
X1520D01*
X1620Y10612D01*
Y11012D01*
X1520Y11112D01*
X1220D01*
X1820Y10512D02*
X2020D01*
X1920D01*
Y11112D01*
X1820Y11012D01*
D11*
X9034Y36570D02*
X9234D01*
X9034Y35870D02*
X9234D01*
X3317Y6929D02*
X3376D01*
X3317Y6614D02*
X3376D01*
X7490D02*
X7549D01*
X7490Y6929D02*
X7549D01*
X11624D02*
X11683D01*
X11624Y6614D02*
X11683D01*
X15640D02*
X15699D01*
X15640Y6929D02*
X15699D01*
X15640Y1654D02*
X15699D01*
X15640Y1339D02*
X15699D01*
X11624D02*
X11683D01*
X11624Y1654D02*
X11683D01*
X7490D02*
X7549D01*
X7490Y1339D02*
X7549D01*
X3317D02*
X3376D01*
X3317Y1654D02*
X3376D01*
X31250Y10039D02*
X31309D01*
X31250Y10354D02*
X31309D01*
X26998Y10039D02*
X27057D01*
X26998Y10354D02*
X27057D01*
X22707D02*
X22766D01*
X22707Y10039D02*
X22766D01*
X43858Y2913D02*
X43917D01*
X43858Y2598D02*
X43917D01*
X43858Y1890D02*
X43917D01*
X43858Y1575D02*
X43917D01*
X43858Y10354D02*
X43917D01*
X43858Y10039D02*
X43917D01*
X43858Y11299D02*
X43917D01*
X43858Y10984D02*
X43917D01*
X34813Y10315D02*
X34872D01*
X34813Y10000D02*
X34872D01*
X18415Y10039D02*
X18474D01*
X18415Y10354D02*
X18474D01*
M02*
