G04*
G04 #@! TF.GenerationSoftware,Altium Limited,Altium Designer,19.1.9 (167)*
G04*
G04 Layer_Color=8421504*
%FSLAX24Y24*%
%MOIN*%
G70*
G01*
G75*
%ADD13R,0.0335X0.0335*%
%ADD14R,0.0600X0.0600*%
%ADD15R,0.0650X0.0512*%
%ADD16R,0.0472X0.0472*%
%ADD17R,0.0630X0.0591*%
%ADD18R,0.0512X0.0610*%
%ADD19R,0.0610X0.0512*%
D13*
X16870Y12047D02*
D03*
X17461D02*
D03*
X15827Y6772D02*
D03*
X16417D02*
D03*
X12402D02*
D03*
X11811D02*
D03*
X7677D02*
D03*
X8268D02*
D03*
X4094D02*
D03*
X3504D02*
D03*
Y1496D02*
D03*
X4094D02*
D03*
X8268D02*
D03*
X7677D02*
D03*
X11811D02*
D03*
X12402D02*
D03*
X16417D02*
D03*
X15827D02*
D03*
X31575Y10197D02*
D03*
X30984D02*
D03*
X27323D02*
D03*
X26732D02*
D03*
X22441D02*
D03*
X23031D02*
D03*
X43593Y2756D02*
D03*
X44183D02*
D03*
X43593Y1732D02*
D03*
X44183D02*
D03*
X43593Y10197D02*
D03*
X44183D02*
D03*
X43593Y11142D02*
D03*
X44183D02*
D03*
X34547Y10157D02*
D03*
X35138D02*
D03*
X18740Y10197D02*
D03*
X18150D02*
D03*
D14*
X14094Y8425D02*
D03*
X15827D02*
D03*
X14094Y9685D02*
D03*
X15827D02*
D03*
X11811D02*
D03*
X10079D02*
D03*
X11811Y8425D02*
D03*
X10079D02*
D03*
X5945D02*
D03*
X7677D02*
D03*
X5945Y9685D02*
D03*
X7677D02*
D03*
X3504D02*
D03*
X1772D02*
D03*
X3504Y8425D02*
D03*
X1772D02*
D03*
Y3150D02*
D03*
X3504D02*
D03*
X1772Y4409D02*
D03*
X3504D02*
D03*
X11811D02*
D03*
X10079D02*
D03*
X11811Y3150D02*
D03*
X10079D02*
D03*
X14094D02*
D03*
X15827D02*
D03*
X14094Y4409D02*
D03*
X15827D02*
D03*
X7677D02*
D03*
X5945D02*
D03*
X7677Y3150D02*
D03*
X5945D02*
D03*
D15*
X28110Y35394D02*
D03*
Y34409D02*
D03*
D16*
X21575Y30709D02*
D03*
X22362D02*
D03*
D17*
X21969Y29429D02*
D03*
D18*
X34528Y4744D02*
D03*
Y7874D02*
D03*
X36299Y4744D02*
D03*
Y7874D02*
D03*
X43819Y4744D02*
D03*
Y7874D02*
D03*
X45591Y4744D02*
D03*
Y7874D02*
D03*
D19*
X41594Y9449D02*
D03*
X38465D02*
D03*
X41594Y11220D02*
D03*
X38465D02*
D03*
Y7165D02*
D03*
X41594D02*
D03*
X38465Y5394D02*
D03*
X41594D02*
D03*
Y1496D02*
D03*
X38465D02*
D03*
X41594Y3268D02*
D03*
X38465D02*
D03*
M02*
