G04*
G04 #@! TF.GenerationSoftware,Altium Limited,Altium Designer,19.1.9 (167)*
G04*
G04 Layer_Color=65535*
%FSLAX24Y24*%
%MOIN*%
G70*
G01*
G75*
%ADD10C,0.0200*%
%ADD11C,0.0100*%
%ADD12C,0.0079*%
D10*
X13494Y10485D02*
G03*
X13494Y10485I-50J0D01*
G01*
X9479D02*
G03*
X9479Y10485I-50J0D01*
G01*
X5345D02*
G03*
X5345Y10485I-50J0D01*
G01*
X1172D02*
G03*
X1172Y10485I-50J0D01*
G01*
Y5209D02*
G03*
X1172Y5209I-50J0D01*
G01*
X9479D02*
G03*
X9479Y5209I-50J0D01*
G01*
X13494D02*
G03*
X13494Y5209I-50J0D01*
G01*
X5345D02*
G03*
X5345Y5209I-50J0D01*
G01*
D11*
X20630Y32953D02*
G03*
X20630Y32953I-2598J0D01*
G01*
X23463Y35780D02*
X23700D01*
X23463Y34330D02*
Y35780D01*
Y34330D02*
X23700D01*
X26913Y34309D02*
Y35759D01*
X26713D02*
X26913D01*
X26713Y34309D02*
X26913D01*
X31110Y4526D02*
Y4763D01*
Y4526D02*
X32560D01*
Y4763D01*
X31130Y7976D02*
X32580D01*
X31130Y7776D02*
Y7976D01*
X32580Y7776D02*
Y7976D01*
X26858Y4526D02*
Y4763D01*
Y4526D02*
X28308D01*
Y4763D01*
X26878Y7976D02*
X28328D01*
X26878Y7776D02*
Y7976D01*
X28328Y7776D02*
Y7976D01*
X22567Y4526D02*
Y4763D01*
Y4526D02*
X24017D01*
Y4763D01*
X22587Y7976D02*
X24037D01*
X22587Y7776D02*
Y7976D01*
X24037Y7776D02*
Y7976D01*
X18276Y4526D02*
Y4763D01*
Y4526D02*
X19726D01*
Y4763D01*
X18296Y7976D02*
X19746D01*
X18296Y7776D02*
Y7976D01*
X19746Y7776D02*
Y7976D01*
X1046Y13108D02*
X13246D01*
Y34908D01*
X1046D02*
X13246D01*
X1046Y13108D02*
Y34908D01*
X13627Y7835D02*
Y10285D01*
X16277D01*
Y7835D02*
Y10285D01*
X13627Y7835D02*
X16277D01*
X9611D02*
X12261D01*
Y10285D01*
X9611D02*
X12261D01*
X9611Y7835D02*
Y10285D01*
X5477Y7835D02*
Y10285D01*
X8127D01*
Y7835D02*
Y10285D01*
X5477Y7835D02*
X8127D01*
X1304D02*
X3954D01*
Y10285D01*
X1304D02*
X3954D01*
X1304Y7835D02*
Y10285D01*
Y2559D02*
Y5009D01*
X3954D01*
Y2559D02*
Y5009D01*
X1304Y2559D02*
X3954D01*
X9611D02*
X12261D01*
Y5009D01*
X9611D02*
X12261D01*
X9611Y2559D02*
Y5009D01*
X13627Y2559D02*
Y5009D01*
X16277D01*
Y2559D02*
Y5009D01*
X13627Y2559D02*
X16277D01*
X5477D02*
X8127D01*
Y5009D01*
X5477D02*
X8127D01*
X5477Y2559D02*
Y5009D01*
X29101Y29439D02*
Y36639D01*
Y29439D02*
X46301D01*
Y36639D01*
X29101D02*
X46301D01*
X22520Y29250D02*
X22668D01*
Y30236D01*
X21268Y29264D02*
Y30250D01*
X21270Y29250D02*
X21418D01*
X34228Y5444D02*
Y7194D01*
X35128Y5128D02*
X35778D01*
X36578Y5444D02*
Y7194D01*
X35128Y7494D02*
X35778D01*
X41215Y9970D02*
Y10620D01*
X39165Y9170D02*
X40915D01*
X38848Y9970D02*
Y10620D01*
X39165Y11520D02*
X40915D01*
X39165Y7465D02*
X40915D01*
X38848Y5915D02*
Y6565D01*
X39165Y5115D02*
X40915D01*
X41215Y5915D02*
Y6565D01*
Y2018D02*
Y2668D01*
X39165Y1218D02*
X40915D01*
X38848Y2018D02*
Y2668D01*
X39165Y3568D02*
X40915D01*
X43519Y5444D02*
Y7194D01*
X44419Y5128D02*
X45069D01*
X45869Y5444D02*
Y7194D01*
X44419Y7494D02*
X45069D01*
X14393Y27843D02*
X46393D01*
X46393Y13143D01*
X14393D02*
X46393D01*
X14393D02*
Y27843D01*
X23659Y30379D02*
X26759D01*
Y32679D01*
X23659D02*
X26759D01*
X23659Y30379D02*
Y32679D01*
X28937Y2402D02*
Y3001D01*
X29237D01*
X29337Y2901D01*
Y2701D01*
X29237Y2602D01*
X28937D01*
X29137D02*
X29337Y2402D01*
X29837D02*
X29637D01*
X29537Y2502D01*
Y2701D01*
X29637Y2801D01*
X29837D01*
X29937Y2701D01*
Y2602D01*
X29537D01*
X30137Y2801D02*
X30337Y2402D01*
X30536Y2801D01*
X31336Y2402D02*
X31536D01*
X31436D01*
Y3001D01*
X31336Y2901D01*
X31836Y2402D02*
Y2502D01*
X31936D01*
Y2402D01*
X31836D01*
X32336D02*
X32536D01*
X32436D01*
Y3001D01*
X32336Y2901D01*
X20591Y1957D02*
X20757D01*
X20674D01*
Y1457D01*
X20591D01*
X20757D01*
X21007D02*
Y1790D01*
X21257D01*
X21340Y1707D01*
Y1457D01*
X21590Y1873D02*
Y1790D01*
X21507D01*
X21674D01*
X21590D01*
Y1540D01*
X21674Y1457D01*
X21923Y1790D02*
Y1457D01*
Y1623D01*
X22007Y1707D01*
X22090Y1790D01*
X22173D01*
X22507Y1457D02*
X22673D01*
X22757Y1540D01*
Y1707D01*
X22673Y1790D01*
X22507D01*
X22423Y1707D01*
Y1540D01*
X22507Y1457D01*
X23256Y1957D02*
Y1457D01*
X23006D01*
X22923Y1540D01*
Y1707D01*
X23006Y1790D01*
X23256D01*
X23423D02*
Y1540D01*
X23506Y1457D01*
X23756D01*
Y1790D01*
X24256D02*
X24006D01*
X23923Y1707D01*
Y1540D01*
X24006Y1457D01*
X24256D01*
X24506Y1873D02*
Y1790D01*
X24423D01*
X24589D01*
X24506D01*
Y1540D01*
X24589Y1457D01*
X24922D02*
X25089D01*
X25172Y1540D01*
Y1707D01*
X25089Y1790D01*
X24922D01*
X24839Y1707D01*
Y1540D01*
X24922Y1457D01*
X25339Y1790D02*
Y1457D01*
Y1623D01*
X25422Y1707D01*
X25506Y1790D01*
X25589D01*
X25839D02*
Y1540D01*
X25922Y1457D01*
X26172D01*
Y1373D01*
X26089Y1290D01*
X26005D01*
X26172Y1457D02*
Y1790D01*
X27172Y1873D02*
X27088Y1957D01*
X26922D01*
X26839Y1873D01*
Y1540D01*
X26922Y1457D01*
X27088D01*
X27172Y1540D01*
X27422Y1457D02*
X27588D01*
X27672Y1540D01*
Y1707D01*
X27588Y1790D01*
X27422D01*
X27338Y1707D01*
Y1540D01*
X27422Y1457D01*
X28171Y1957D02*
Y1457D01*
X27922D01*
X27838Y1540D01*
Y1707D01*
X27922Y1790D01*
X28171D01*
X28338Y1457D02*
X28505D01*
X28421D01*
Y1790D01*
X28338D01*
X28755Y1457D02*
Y1790D01*
X29004D01*
X29088Y1707D01*
Y1457D01*
X29421Y1290D02*
X29504D01*
X29588Y1373D01*
Y1790D01*
X29338D01*
X29254Y1707D01*
Y1540D01*
X29338Y1457D01*
X29588D01*
X30587Y1957D02*
X30254D01*
Y1457D01*
X30587D01*
X30254Y1707D02*
X30421D01*
X30754Y1790D02*
X31087Y1457D01*
X30921Y1623D01*
X31087Y1790D01*
X30754Y1457D01*
X31254Y1290D02*
Y1790D01*
X31504D01*
X31587Y1707D01*
Y1540D01*
X31504Y1457D01*
X31254D01*
X32004D02*
X31837D01*
X31754Y1540D01*
Y1707D01*
X31837Y1790D01*
X32004D01*
X32087Y1707D01*
Y1623D01*
X31754D01*
X32253Y1790D02*
Y1457D01*
Y1623D01*
X32337Y1707D01*
X32420Y1790D01*
X32503D01*
X32753Y1457D02*
X32920D01*
X32837D01*
Y1790D01*
X32753D01*
X33420Y1457D02*
X33253D01*
X33170Y1540D01*
Y1707D01*
X33253Y1790D01*
X33420D01*
X33503Y1707D01*
Y1623D01*
X33170D01*
X33670Y1457D02*
Y1790D01*
X33920D01*
X34003Y1707D01*
Y1457D01*
X34503Y1790D02*
X34253D01*
X34169Y1707D01*
Y1540D01*
X34253Y1457D01*
X34503D01*
X34919D02*
X34753D01*
X34669Y1540D01*
Y1707D01*
X34753Y1790D01*
X34919D01*
X35003Y1707D01*
Y1623D01*
X34669D01*
X20591Y1051D02*
Y551D01*
X20840D01*
X20924Y634D01*
Y718D01*
X20840Y801D01*
X20591D01*
X20840D01*
X20924Y884D01*
Y968D01*
X20840Y1051D01*
X20591D01*
X21090Y884D02*
Y551D01*
Y718D01*
X21174Y801D01*
X21257Y884D01*
X21340D01*
X21590Y551D02*
X21757D01*
X21674D01*
Y884D01*
X21590D01*
X22173Y385D02*
X22257D01*
X22340Y468D01*
Y884D01*
X22090D01*
X22007Y801D01*
Y634D01*
X22090Y551D01*
X22340D01*
X22507Y1051D02*
Y551D01*
Y801D01*
X22590Y884D01*
X22757D01*
X22840Y801D01*
Y551D01*
X23090Y884D02*
X23256D01*
X23340Y801D01*
Y551D01*
X23090D01*
X23006Y634D01*
X23090Y718D01*
X23340D01*
X23506Y551D02*
Y884D01*
X23590D01*
X23673Y801D01*
Y551D01*
Y801D01*
X23756Y884D01*
X23839Y801D01*
Y551D01*
X24506Y1051D02*
Y968D01*
X24673Y801D01*
X24839Y968D01*
Y1051D01*
X24673Y801D02*
Y551D01*
X25089D02*
X25256D01*
X25339Y634D01*
Y801D01*
X25256Y884D01*
X25089D01*
X25006Y801D01*
Y634D01*
X25089Y551D01*
X25506Y884D02*
Y634D01*
X25589Y551D01*
X25839D01*
Y884D01*
X26005Y551D02*
Y884D01*
X26255D01*
X26339Y801D01*
Y551D01*
X26672Y385D02*
X26755D01*
X26839Y468D01*
Y884D01*
X26589D01*
X26505Y801D01*
Y634D01*
X26589Y551D01*
X26839D01*
X27505Y1051D02*
Y634D01*
X27588Y551D01*
X27755D01*
X27838Y634D01*
Y1051D01*
X28005Y551D02*
Y884D01*
X28255D01*
X28338Y801D01*
Y551D01*
X28505D02*
X28671D01*
X28588D01*
Y884D01*
X28505D01*
X28921D02*
X29088Y551D01*
X29254Y884D01*
X29671Y551D02*
X29504D01*
X29421Y634D01*
Y801D01*
X29504Y884D01*
X29671D01*
X29754Y801D01*
Y718D01*
X29421D01*
X29921Y884D02*
Y551D01*
Y718D01*
X30004Y801D01*
X30087Y884D01*
X30171D01*
X30421Y551D02*
X30671D01*
X30754Y634D01*
X30671Y718D01*
X30504D01*
X30421Y801D01*
X30504Y884D01*
X30754D01*
X30921Y551D02*
X31087D01*
X31004D01*
Y884D01*
X30921D01*
X31420Y968D02*
Y884D01*
X31337D01*
X31504D01*
X31420D01*
Y634D01*
X31504Y551D01*
X31754Y884D02*
Y634D01*
X31837Y551D01*
X32087D01*
Y468D01*
X32004Y385D01*
X31920D01*
X32087Y551D02*
Y884D01*
X20551Y3401D02*
X20884D01*
X20718D01*
Y2402D01*
X20551D01*
X20884D01*
X22051Y3235D02*
X21884Y3401D01*
X21551D01*
X21384Y3235D01*
Y2568D01*
X21551Y2402D01*
X21884D01*
X22051Y2568D01*
X23050Y3401D02*
X22384D01*
Y2402D01*
X23050D01*
X22384Y2901D02*
X22717D01*
X23384Y3401D02*
Y2402D01*
X23883D01*
X24050Y2568D01*
Y2735D01*
X23883Y2901D01*
X23384D01*
X23883D01*
X24050Y3068D01*
Y3235D01*
X23883Y3401D01*
X23384D01*
X24550Y2402D02*
X24883D01*
X25050Y2568D01*
Y2901D01*
X24883Y3068D01*
X24550D01*
X24383Y2901D01*
Y2568D01*
X24550Y2402D01*
X25550Y3068D02*
X25883D01*
X26049Y2901D01*
Y2402D01*
X25550D01*
X25383Y2568D01*
X25550Y2735D01*
X26049D01*
X26383Y3068D02*
Y2402D01*
Y2735D01*
X26549Y2901D01*
X26716Y3068D01*
X26882D01*
X28049Y3401D02*
Y2402D01*
X27549D01*
X27382Y2568D01*
Y2901D01*
X27549Y3068D01*
X28049D01*
X15197Y11732D02*
Y12332D01*
X15497D01*
X15597Y12232D01*
Y12032D01*
X15497Y11932D01*
X15197D01*
X15397D02*
X15597Y11732D01*
X15797D02*
X15997D01*
X15897D01*
Y12332D01*
X15797Y12232D01*
X16296Y11732D02*
X16496D01*
X16396D01*
Y12332D01*
X16296Y12232D01*
X23759Y36908D02*
X23659Y37008D01*
X23459D01*
X23359Y36908D01*
Y36808D01*
X23459Y36708D01*
X23659D01*
X23759Y36608D01*
Y36508D01*
X23659Y36408D01*
X23459D01*
X23359Y36508D01*
X23959Y36408D02*
X24159D01*
X24059D01*
Y37008D01*
X23959Y36908D01*
X24459D02*
X24559Y37008D01*
X24759D01*
X24859Y36908D01*
Y36508D01*
X24759Y36408D01*
X24559D01*
X24459Y36508D01*
Y36908D01*
X5694Y5982D02*
Y5383D01*
X6094D01*
X6694Y5982D02*
X6294D01*
Y5383D01*
X6694D01*
X6294Y5682D02*
X6494D01*
X6894Y5982D02*
Y5383D01*
X7194D01*
X7294Y5482D01*
Y5882D01*
X7194Y5982D01*
X6894D01*
X7894D02*
X7694Y5882D01*
X7494Y5682D01*
Y5482D01*
X7594Y5383D01*
X7794D01*
X7894Y5482D01*
Y5582D01*
X7794Y5682D01*
X7494D01*
X13844Y5982D02*
Y5383D01*
X14244D01*
X14844Y5982D02*
X14444D01*
Y5383D01*
X14844D01*
X14444Y5682D02*
X14644D01*
X15044Y5982D02*
Y5383D01*
X15344D01*
X15444Y5482D01*
Y5882D01*
X15344Y5982D01*
X15044D01*
X15644Y5882D02*
X15744Y5982D01*
X15944D01*
X16044Y5882D01*
Y5782D01*
X15944Y5682D01*
X16044Y5582D01*
Y5482D01*
X15944Y5383D01*
X15744D01*
X15644Y5482D01*
Y5582D01*
X15744Y5682D01*
X15644Y5782D01*
Y5882D01*
X15744Y5682D02*
X15944D01*
X9834Y5982D02*
Y5383D01*
X10234D01*
X10834Y5982D02*
X10434D01*
Y5383D01*
X10834D01*
X10434Y5682D02*
X10634D01*
X11034Y5982D02*
Y5383D01*
X11334D01*
X11434Y5482D01*
Y5882D01*
X11334Y5982D01*
X11034D01*
X11634D02*
X12034D01*
Y5882D01*
X11634Y5482D01*
Y5383D01*
X1524Y5982D02*
Y5383D01*
X1924D01*
X2524Y5982D02*
X2124D01*
Y5383D01*
X2524D01*
X2124Y5682D02*
X2324D01*
X2724Y5982D02*
Y5383D01*
X3024D01*
X3124Y5482D01*
Y5882D01*
X3024Y5982D01*
X2724D01*
X3724D02*
X3324D01*
Y5682D01*
X3524Y5782D01*
X3624D01*
X3724Y5682D01*
Y5482D01*
X3624Y5383D01*
X3424D01*
X3324Y5482D01*
X1485Y11341D02*
Y10741D01*
X1885D01*
X2485Y11341D02*
X2085D01*
Y10741D01*
X2485D01*
X2085Y11041D02*
X2285D01*
X2685Y11341D02*
Y10741D01*
X2985D01*
X3085Y10841D01*
Y11241D01*
X2985Y11341D01*
X2685D01*
X3284Y10741D02*
X3484D01*
X3384D01*
Y11341D01*
X3284Y11241D01*
X5655Y11341D02*
Y10741D01*
X6055D01*
X6655Y11341D02*
X6255D01*
Y10741D01*
X6655D01*
X6255Y11041D02*
X6455D01*
X6855Y11341D02*
Y10741D01*
X7155D01*
X7255Y10841D01*
Y11241D01*
X7155Y11341D01*
X6855D01*
X7854Y10741D02*
X7455D01*
X7854Y11141D01*
Y11241D01*
X7754Y11341D01*
X7555D01*
X7455Y11241D01*
X9795Y11341D02*
Y10741D01*
X10195D01*
X10795Y11341D02*
X10395D01*
Y10741D01*
X10795D01*
X10395Y11041D02*
X10595D01*
X10994Y11341D02*
Y10741D01*
X11294D01*
X11394Y10841D01*
Y11241D01*
X11294Y11341D01*
X10994D01*
X11594Y11241D02*
X11694Y11341D01*
X11894D01*
X11994Y11241D01*
Y11141D01*
X11894Y11041D01*
X11794D01*
X11894D01*
X11994Y10941D01*
Y10841D01*
X11894Y10741D01*
X11694D01*
X11594Y10841D01*
X13805Y11341D02*
Y10741D01*
X14205D01*
X14805Y11341D02*
X14405D01*
Y10741D01*
X14805D01*
X14405Y11041D02*
X14605D01*
X15005Y11341D02*
Y10741D01*
X15305D01*
X15405Y10841D01*
Y11241D01*
X15305Y11341D01*
X15005D01*
X15904Y10741D02*
Y11341D01*
X15605Y11041D01*
X16004D01*
X28295Y33439D02*
X28395Y33539D01*
Y33739D01*
X28295Y33839D01*
X27895D01*
X27795Y33739D01*
Y33539D01*
X27895Y33439D01*
Y33239D02*
X27795Y33139D01*
Y32939D01*
X27895Y32839D01*
X28295D01*
X28395Y32939D01*
Y33139D01*
X28295Y33239D01*
X28195D01*
X28095Y33139D01*
Y32839D01*
X45433Y29064D02*
Y28565D01*
X45533Y28465D01*
X45733D01*
X45833Y28565D01*
Y29064D01*
X46033Y28465D02*
X46233D01*
X46133D01*
Y29064D01*
X46033Y28964D01*
X29390Y9921D02*
Y10521D01*
X29690D01*
X29790Y10421D01*
Y10221D01*
X29690Y10121D01*
X29390D01*
X29590D02*
X29790Y9921D01*
X30389Y10521D02*
X29990D01*
Y10221D01*
X30190Y10321D01*
X30289D01*
X30389Y10221D01*
Y10021D01*
X30289Y9921D01*
X30090D01*
X29990Y10021D01*
X25335Y9961D02*
Y10560D01*
X25635D01*
X25735Y10460D01*
Y10261D01*
X25635Y10161D01*
X25335D01*
X25535D02*
X25735Y9961D01*
X26234D02*
Y10560D01*
X25934Y10261D01*
X26334D01*
X45362Y12805D02*
Y12305D01*
X45462Y12205D01*
X45662D01*
X45762Y12305D01*
Y12805D01*
X46362Y12205D02*
X45962D01*
X46362Y12605D01*
Y12705D01*
X46262Y12805D01*
X46062D01*
X45962Y12705D01*
X20846Y10000D02*
Y10600D01*
X21146D01*
X21246Y10500D01*
Y10300D01*
X21146Y10200D01*
X20846D01*
X21046D02*
X21246Y10000D01*
X21446Y10500D02*
X21546Y10600D01*
X21746D01*
X21846Y10500D01*
Y10400D01*
X21746Y10300D01*
X21646D01*
X21746D01*
X21846Y10200D01*
Y10100D01*
X21746Y10000D01*
X21546D01*
X21446Y10100D01*
X31227Y9043D02*
X31127Y9143D01*
X30927D01*
X30827Y9043D01*
Y8943D01*
X30927Y8843D01*
X31127D01*
X31227Y8743D01*
Y8643D01*
X31127Y8543D01*
X30927D01*
X30827Y8643D01*
X31726Y8543D02*
Y9143D01*
X31427Y8843D01*
X31826D01*
X27053Y9043D02*
X26953Y9143D01*
X26754D01*
X26654Y9043D01*
Y8943D01*
X26754Y8843D01*
X26953D01*
X27053Y8743D01*
Y8643D01*
X26953Y8543D01*
X26754D01*
X26654Y8643D01*
X27253Y9043D02*
X27353Y9143D01*
X27553D01*
X27653Y9043D01*
Y8943D01*
X27553Y8843D01*
X27453D01*
X27553D01*
X27653Y8743D01*
Y8643D01*
X27553Y8543D01*
X27353D01*
X27253Y8643D01*
X22683Y9043D02*
X22583Y9143D01*
X22383D01*
X22283Y9043D01*
Y8943D01*
X22383Y8843D01*
X22583D01*
X22683Y8743D01*
Y8643D01*
X22583Y8543D01*
X22383D01*
X22283Y8643D01*
X23283Y8543D02*
X22883D01*
X23283Y8943D01*
Y9043D01*
X23183Y9143D01*
X22983D01*
X22883Y9043D01*
X18431D02*
X18331Y9143D01*
X18131D01*
X18032Y9043D01*
Y8943D01*
X18131Y8843D01*
X18331D01*
X18431Y8743D01*
Y8643D01*
X18331Y8543D01*
X18131D01*
X18032Y8643D01*
X18631Y8543D02*
X18831D01*
X18731D01*
Y9143D01*
X18631Y9043D01*
X14770Y1720D02*
X14670Y1820D01*
X14470D01*
X14370Y1720D01*
Y1320D01*
X14470Y1220D01*
X14670D01*
X14770Y1320D01*
X14970Y1720D02*
X15070Y1820D01*
X15270D01*
X15370Y1720D01*
Y1620D01*
X15270Y1520D01*
X15370Y1420D01*
Y1320D01*
X15270Y1220D01*
X15070D01*
X14970Y1320D01*
Y1420D01*
X15070Y1520D01*
X14970Y1620D01*
Y1720D01*
X15070Y1520D02*
X15270D01*
X10813Y1720D02*
X10713Y1820D01*
X10513D01*
X10413Y1720D01*
Y1320D01*
X10513Y1220D01*
X10713D01*
X10813Y1320D01*
X11013Y1820D02*
X11413D01*
Y1720D01*
X11013Y1320D01*
Y1220D01*
X6658Y1720D02*
X6558Y1820D01*
X6358D01*
X6258Y1720D01*
Y1320D01*
X6358Y1220D01*
X6558D01*
X6658Y1320D01*
X7258Y1820D02*
X7058Y1720D01*
X6858Y1520D01*
Y1320D01*
X6958Y1220D01*
X7158D01*
X7258Y1320D01*
Y1420D01*
X7158Y1520D01*
X6858D01*
X2388Y1602D02*
X2288Y1702D01*
X2088D01*
X1988Y1602D01*
Y1202D01*
X2088Y1102D01*
X2288D01*
X2388Y1202D01*
X2988Y1702D02*
X2588D01*
Y1402D01*
X2788Y1502D01*
X2888D01*
X2988Y1402D01*
Y1202D01*
X2888Y1102D01*
X2688D01*
X2588Y1202D01*
X2388Y6957D02*
X2288Y7056D01*
X2088D01*
X1988Y6957D01*
Y6557D01*
X2088Y6457D01*
X2288D01*
X2388Y6557D01*
X2888Y6457D02*
Y7056D01*
X2588Y6757D01*
X2988D01*
X6581Y6957D02*
X6481Y7056D01*
X6281D01*
X6181Y6957D01*
Y6557D01*
X6281Y6457D01*
X6481D01*
X6581Y6557D01*
X6781Y6957D02*
X6881Y7056D01*
X7081D01*
X7181Y6957D01*
Y6857D01*
X7081Y6757D01*
X6981D01*
X7081D01*
X7181Y6657D01*
Y6557D01*
X7081Y6457D01*
X6881D01*
X6781Y6557D01*
X10794Y7035D02*
X10694Y7135D01*
X10494D01*
X10394Y7035D01*
Y6635D01*
X10494Y6535D01*
X10694D01*
X10794Y6635D01*
X11393Y6535D02*
X10994D01*
X11393Y6935D01*
Y7035D01*
X11293Y7135D01*
X11093D01*
X10994Y7035D01*
X15065Y6996D02*
X14965Y7096D01*
X14765D01*
X14665Y6996D01*
Y6596D01*
X14765Y6496D01*
X14965D01*
X15065Y6596D01*
X15265Y6496D02*
X15465D01*
X15365D01*
Y7096D01*
X15265Y6996D01*
X45512Y2402D02*
Y3001D01*
X45812D01*
X45912Y2901D01*
Y2701D01*
X45812Y2602D01*
X45512D01*
X45712D02*
X45912Y2402D01*
X46112D02*
X46312D01*
X46212D01*
Y3001D01*
X46112Y2901D01*
X46611D02*
X46711Y3001D01*
X46911D01*
X47011Y2901D01*
Y2502D01*
X46911Y2402D01*
X46711D01*
X46611Y2502D01*
Y2901D01*
X45512Y1457D02*
Y2057D01*
X45812D01*
X45912Y1957D01*
Y1757D01*
X45812Y1657D01*
X45512D01*
X45712D02*
X45912Y1457D01*
X46112Y1557D02*
X46212Y1457D01*
X46412D01*
X46511Y1557D01*
Y1957D01*
X46412Y2057D01*
X46212D01*
X46112Y1957D01*
Y1857D01*
X46212Y1757D01*
X46511D01*
X45354Y9961D02*
Y10560D01*
X45654D01*
X45754Y10460D01*
Y10261D01*
X45654Y10161D01*
X45354D01*
X45554D02*
X45754Y9961D01*
X45954Y10460D02*
X46054Y10560D01*
X46254D01*
X46354Y10460D01*
Y10360D01*
X46254Y10261D01*
X46354Y10161D01*
Y10061D01*
X46254Y9961D01*
X46054D01*
X45954Y10061D01*
Y10161D01*
X46054Y10261D01*
X45954Y10360D01*
Y10460D01*
X46054Y10261D02*
X46254D01*
X45354Y10866D02*
Y11466D01*
X45654D01*
X45754Y11366D01*
Y11166D01*
X45654Y11066D01*
X45354D01*
X45554D02*
X45754Y10866D01*
X45954Y11466D02*
X46354D01*
Y11366D01*
X45954Y10966D01*
Y10866D01*
X36457Y9882D02*
Y10482D01*
X36757D01*
X36857Y10382D01*
Y10182D01*
X36757Y10082D01*
X36457D01*
X36657D02*
X36857Y9882D01*
X37456Y10482D02*
X37256Y10382D01*
X37057Y10182D01*
Y9982D01*
X37156Y9882D01*
X37356D01*
X37456Y9982D01*
Y10082D01*
X37356Y10182D01*
X37057D01*
X16398Y10000D02*
Y10600D01*
X16698D01*
X16798Y10500D01*
Y10300D01*
X16698Y10200D01*
X16398D01*
X16598D02*
X16798Y10000D01*
X17397D02*
X16997D01*
X17397Y10400D01*
Y10500D01*
X17297Y10600D01*
X17097D01*
X16997Y10500D01*
X16457Y36584D02*
Y35984D01*
X16757D01*
X16857Y36084D01*
Y36184D01*
X16757Y36284D01*
X16457D01*
X16757D01*
X16857Y36384D01*
Y36484D01*
X16757Y36584D01*
X16457D01*
X17056Y36384D02*
Y36084D01*
X17156Y35984D01*
X17456D01*
Y36384D01*
X17656D02*
X18056D01*
X17656Y35984D01*
X18056D01*
X18256Y36384D02*
X18656D01*
X18256Y35984D01*
X18656D01*
X19156D02*
X18956D01*
X18856Y36084D01*
Y36284D01*
X18956Y36384D01*
X19156D01*
X19256Y36284D01*
Y36184D01*
X18856D01*
X19456Y36384D02*
Y35984D01*
Y36184D01*
X19556Y36284D01*
X19656Y36384D01*
X19756D01*
X43470Y9440D02*
Y8840D01*
X43770D01*
X43870Y8940D01*
Y9040D01*
X43770Y9140D01*
X43470D01*
X43770D01*
X43870Y9240D01*
Y9340D01*
X43770Y9440D01*
X43470D01*
X44070Y8840D02*
Y9440D01*
X44370D01*
X44470Y9340D01*
Y9140D01*
X44370Y9040D01*
X44070D01*
X44270D02*
X44470Y8840D01*
X44670D02*
X44870D01*
X44770D01*
Y9240D01*
X44670D01*
X45369Y8640D02*
X45469D01*
X45569Y8740D01*
Y9240D01*
X45269D01*
X45169Y9140D01*
Y8940D01*
X45269Y8840D01*
X45569D01*
X45769Y9440D02*
Y8840D01*
Y9140D01*
X45869Y9240D01*
X46069D01*
X46169Y9140D01*
Y8840D01*
X46469Y9340D02*
Y9240D01*
X46369D01*
X46569D01*
X46469D01*
Y8940D01*
X46569Y8840D01*
X38110Y4620D02*
Y4020D01*
X38410D01*
X38510Y4120D01*
Y4220D01*
X38410Y4320D01*
X38110D01*
X38410D01*
X38510Y4420D01*
Y4520D01*
X38410Y4620D01*
X38110D01*
X38710D02*
Y4020D01*
X39010D01*
X39110Y4120D01*
Y4520D01*
X39010Y4620D01*
X38710D01*
X39410Y4020D02*
X39610D01*
X39709Y4120D01*
Y4320D01*
X39610Y4420D01*
X39410D01*
X39310Y4320D01*
Y4120D01*
X39410Y4020D01*
X39909Y4420D02*
Y4120D01*
X40009Y4020D01*
X40109Y4120D01*
X40209Y4020D01*
X40309Y4120D01*
Y4420D01*
X40509Y4020D02*
Y4420D01*
X40809D01*
X40909Y4320D01*
Y4020D01*
X38110Y8520D02*
Y7920D01*
X38410D01*
X38510Y8020D01*
Y8120D01*
X38410Y8220D01*
X38110D01*
X38410D01*
X38510Y8320D01*
Y8420D01*
X38410Y8520D01*
X38110D01*
X39110Y8420D02*
X39010Y8520D01*
X38810D01*
X38710Y8420D01*
Y8020D01*
X38810Y7920D01*
X39010D01*
X39110Y8020D01*
X39610Y7920D02*
X39410D01*
X39310Y8020D01*
Y8220D01*
X39410Y8320D01*
X39610D01*
X39709Y8220D01*
Y8120D01*
X39310D01*
X39909Y7920D02*
Y8320D01*
X40209D01*
X40309Y8220D01*
Y7920D01*
X40609Y8420D02*
Y8320D01*
X40509D01*
X40709D01*
X40609D01*
Y8020D01*
X40709Y7920D01*
X41309D02*
X41109D01*
X41009Y8020D01*
Y8220D01*
X41109Y8320D01*
X41309D01*
X41409Y8220D01*
Y8120D01*
X41009D01*
X41609Y8320D02*
Y7920D01*
Y8120D01*
X41709Y8220D01*
X41809Y8320D01*
X41909D01*
X38110Y12770D02*
Y12170D01*
X38410D01*
X38510Y12270D01*
Y12370D01*
X38410Y12470D01*
X38110D01*
X38410D01*
X38510Y12570D01*
Y12670D01*
X38410Y12770D01*
X38110D01*
X38710D02*
Y12270D01*
X38810Y12170D01*
X39010D01*
X39110Y12270D01*
Y12770D01*
X39310Y11970D02*
Y12570D01*
X39610D01*
X39709Y12470D01*
Y12270D01*
X39610Y12170D01*
X39310D01*
X34180Y9240D02*
Y8640D01*
X34480D01*
X34580Y8740D01*
Y8840D01*
X34480Y8940D01*
X34180D01*
X34480D01*
X34580Y9040D01*
Y9140D01*
X34480Y9240D01*
X34180D01*
X34780D02*
Y8640D01*
X35180D01*
X35680D02*
X35480D01*
X35380Y8740D01*
Y8940D01*
X35480Y9040D01*
X35680D01*
X35779Y8940D01*
Y8840D01*
X35380D01*
X36079Y8640D02*
Y9140D01*
Y8940D01*
X35979D01*
X36179D01*
X36079D01*
Y9140D01*
X36179Y9240D01*
X36579Y9140D02*
Y9040D01*
X36479D01*
X36679D01*
X36579D01*
Y8740D01*
X36679Y8640D01*
X20984Y29291D02*
X20384D01*
Y29591D01*
X20484Y29691D01*
X20684D01*
X20784Y29591D01*
Y29291D01*
Y29491D02*
X20984Y29691D01*
Y29891D02*
Y30091D01*
Y29991D01*
X20384D01*
X20484Y29891D01*
X12283Y12805D02*
Y12205D01*
Y12505D01*
X12683D01*
Y12805D01*
Y12205D01*
X12883D02*
X13083D01*
X12983D01*
Y12805D01*
X12883Y12705D01*
X24618Y33749D02*
X24818D01*
X24718D01*
Y33150D01*
X24618D01*
X24818D01*
X25118D02*
Y33749D01*
X25418D01*
X25518Y33649D01*
Y33450D01*
X25418Y33350D01*
X25118D01*
X25318D02*
X25518Y33150D01*
X25718D02*
X25918D01*
X25818D01*
Y33749D01*
X25718Y33649D01*
D12*
X17136Y12205D02*
X17195D01*
X17136Y11890D02*
X17195D01*
X28460Y34802D02*
Y35002D01*
X27760Y34802D02*
Y35002D01*
X16093Y6929D02*
X16152D01*
X16093Y6614D02*
X16152D01*
X12077D02*
X12136D01*
X12077Y6929D02*
X12136D01*
X7943D02*
X8002D01*
X7943Y6614D02*
X8002D01*
X3770D02*
X3829D01*
X3770Y6929D02*
X3829D01*
X3770Y1654D02*
X3829D01*
X3770Y1339D02*
X3829D01*
X7943D02*
X8002D01*
X7943Y1654D02*
X8002D01*
X12077D02*
X12136D01*
X12077Y1339D02*
X12136D01*
X16093D02*
X16152D01*
X16093Y1654D02*
X16152D01*
X31250Y10039D02*
X31309D01*
X31250Y10354D02*
X31309D01*
X26998Y10039D02*
X27057D01*
X26998Y10354D02*
X27057D01*
X22707D02*
X22766D01*
X22707Y10039D02*
X22766D01*
X43858Y2913D02*
X43917D01*
X43858Y2598D02*
X43917D01*
X43858Y1890D02*
X43917D01*
X43858Y1575D02*
X43917D01*
X43858Y10354D02*
X43917D01*
X43858Y10039D02*
X43917D01*
X43858Y11299D02*
X43917D01*
X43858Y10984D02*
X43917D01*
X34813Y10315D02*
X34872D01*
X34813Y10000D02*
X34872D01*
X18415Y10039D02*
X18474D01*
X18415Y10354D02*
X18474D01*
M02*
