G04*
G04 #@! TF.GenerationSoftware,Altium Limited,Altium Designer,19.1.8 (144)*
G04*
G04 Layer_Color=8388736*
%FSLAX24Y24*%
%MOIN*%
G70*
G01*
G75*
%ADD20R,0.0592X0.0730*%
%ADD21R,0.0552X0.0552*%
%ADD22R,0.0710X0.0671*%
%ADD23R,0.0415X0.0415*%
%ADD24R,0.0592X0.0690*%
%ADD25R,0.0690X0.0592*%
%ADD26R,0.1064X0.0552*%
%ADD27R,0.0680X0.0680*%
%ADD28C,0.0867*%
%ADD29R,0.0789X0.0789*%
%ADD30C,0.0789*%
%ADD31C,0.1300*%
%ADD32C,0.1104*%
%ADD33R,0.1104X0.1104*%
%ADD34R,0.0710X0.0710*%
%ADD35C,0.0710*%
%ADD36C,0.0580*%
D20*
X8642Y36220D02*
D03*
X9626D02*
D03*
D21*
X21575Y30709D02*
D03*
X22362D02*
D03*
D22*
X21969Y29429D02*
D03*
D23*
X3051Y6772D02*
D03*
X3642D02*
D03*
X7815D02*
D03*
X7224D02*
D03*
X11358D02*
D03*
X11949D02*
D03*
X15965D02*
D03*
X15374D02*
D03*
Y1496D02*
D03*
X15965D02*
D03*
X11949D02*
D03*
X11358D02*
D03*
X7224D02*
D03*
X7815D02*
D03*
X3642D02*
D03*
X3051D02*
D03*
X31575Y10197D02*
D03*
X30984D02*
D03*
X27323D02*
D03*
X26732D02*
D03*
X22441D02*
D03*
X23031D02*
D03*
X43593Y2756D02*
D03*
X44183D02*
D03*
X43593Y1732D02*
D03*
X44183D02*
D03*
X43593Y10197D02*
D03*
X44183D02*
D03*
X43593Y11142D02*
D03*
X44183D02*
D03*
X34547Y10157D02*
D03*
X35138D02*
D03*
X18740Y10197D02*
D03*
X18150D02*
D03*
D24*
X34528Y4744D02*
D03*
Y7874D02*
D03*
X36299Y4744D02*
D03*
Y7874D02*
D03*
X43819Y4744D02*
D03*
Y7874D02*
D03*
X45591Y4744D02*
D03*
Y7874D02*
D03*
D25*
X41594Y9449D02*
D03*
X38465D02*
D03*
X41594Y11220D02*
D03*
X38465D02*
D03*
Y7165D02*
D03*
X41594D02*
D03*
X38465Y5394D02*
D03*
X41594D02*
D03*
Y1496D02*
D03*
X38465D02*
D03*
X41594Y3268D02*
D03*
X38465D02*
D03*
D26*
X19646Y5276D02*
D03*
Y6260D02*
D03*
X17480Y5276D02*
D03*
Y6260D02*
D03*
X19646Y7244D02*
D03*
X17480D02*
D03*
X21772D02*
D03*
X23937D02*
D03*
X21772Y6260D02*
D03*
Y5276D02*
D03*
X23937Y6260D02*
D03*
Y5276D02*
D03*
X28228D02*
D03*
Y6260D02*
D03*
X26063Y5276D02*
D03*
Y6260D02*
D03*
X28228Y7244D02*
D03*
X26063D02*
D03*
X30315D02*
D03*
X32480D02*
D03*
X30315Y6260D02*
D03*
Y5276D02*
D03*
X32480Y6260D02*
D03*
Y5276D02*
D03*
D27*
X3031Y7953D02*
D03*
Y9685D02*
D03*
X1772Y7953D02*
D03*
Y9685D02*
D03*
X5945D02*
D03*
Y7953D02*
D03*
X7205Y9685D02*
D03*
Y7953D02*
D03*
X11339D02*
D03*
Y9685D02*
D03*
X10079Y7953D02*
D03*
Y9685D02*
D03*
X14094D02*
D03*
Y7953D02*
D03*
X15354Y9685D02*
D03*
Y7953D02*
D03*
Y2677D02*
D03*
Y4409D02*
D03*
X14094Y2677D02*
D03*
Y4409D02*
D03*
X10079D02*
D03*
Y2677D02*
D03*
X11339Y4409D02*
D03*
Y2677D02*
D03*
X7205D02*
D03*
Y4409D02*
D03*
X5945Y2677D02*
D03*
Y4409D02*
D03*
X1772D02*
D03*
Y2677D02*
D03*
X3031Y4409D02*
D03*
Y2677D02*
D03*
D28*
X29701Y30039D02*
D03*
X45701D02*
D03*
Y36039D02*
D03*
X29701D02*
D03*
D29*
X30701Y30039D02*
D03*
X17693Y26693D02*
D03*
X18032Y33937D02*
D03*
D30*
X31701Y30039D02*
D03*
X32701D02*
D03*
X33701D02*
D03*
X34701D02*
D03*
X35701D02*
D03*
X36701D02*
D03*
X37701D02*
D03*
X38701D02*
D03*
X39701D02*
D03*
X40701D02*
D03*
X41701D02*
D03*
X42701D02*
D03*
X43701D02*
D03*
X44701D02*
D03*
Y36039D02*
D03*
X43701D02*
D03*
X42701D02*
D03*
X41701D02*
D03*
X40701D02*
D03*
X39701D02*
D03*
X38701D02*
D03*
X37701D02*
D03*
X36701D02*
D03*
X35701D02*
D03*
X34701D02*
D03*
X33701D02*
D03*
X32701D02*
D03*
X31701D02*
D03*
X30701D02*
D03*
X32693Y26693D02*
D03*
X31693D02*
D03*
X30693D02*
D03*
X29693D02*
D03*
X28693D02*
D03*
X27693D02*
D03*
X26693D02*
D03*
X25693D02*
D03*
X24693D02*
D03*
X23693D02*
D03*
X22693D02*
D03*
X21693D02*
D03*
X20693D02*
D03*
X19693D02*
D03*
X18693D02*
D03*
X18032Y31969D02*
D03*
D31*
X45055Y14488D02*
D03*
Y26693D02*
D03*
X15528Y14488D02*
D03*
Y26693D02*
D03*
D32*
X4646Y33858D02*
D03*
D33*
X9646D02*
D03*
D34*
X24209Y33268D02*
D03*
D35*
X25209D02*
D03*
X26209D02*
D03*
D36*
X7913Y36220D02*
D03*
X35866Y10157D02*
D03*
X22362Y31417D02*
D03*
X32480Y3976D02*
D03*
X23937D02*
D03*
X827Y9685D02*
D03*
X5000D02*
D03*
X9134D02*
D03*
X4331Y6772D02*
D03*
X8465D02*
D03*
X12638D02*
D03*
X13150Y4409D02*
D03*
X9134D02*
D03*
X5000D02*
D03*
X787D02*
D03*
X4331Y1496D02*
D03*
X8543D02*
D03*
X12638D02*
D03*
X16654D02*
D03*
X44882Y10197D02*
D03*
Y2756D02*
D03*
X19646Y3976D02*
D03*
X28228D02*
D03*
X15965Y6102D02*
D03*
X13150Y9685D02*
D03*
X44882Y11142D02*
D03*
Y1732D02*
D03*
M02*
