G04*
G04 #@! TF.GenerationSoftware,Altium Limited,Altium Designer,19.1.8 (144)*
G04*
G04 Layer_Color=8421504*
%FSLAX24Y24*%
%MOIN*%
G70*
G01*
G75*
%ADD12R,0.0512X0.0650*%
%ADD13R,0.0472X0.0472*%
%ADD14R,0.0630X0.0591*%
%ADD15R,0.0335X0.0335*%
%ADD16R,0.0512X0.0610*%
%ADD17R,0.0610X0.0512*%
%ADD18R,0.0984X0.0472*%
%ADD19R,0.0600X0.0600*%
D12*
X8642Y36220D02*
D03*
X9626D02*
D03*
D13*
X21575Y30709D02*
D03*
X22362D02*
D03*
D14*
X21969Y29429D02*
D03*
D15*
X3051Y6772D02*
D03*
X3642D02*
D03*
X7815D02*
D03*
X7224D02*
D03*
X11358D02*
D03*
X11949D02*
D03*
X15965D02*
D03*
X15374D02*
D03*
Y1496D02*
D03*
X15965D02*
D03*
X11949D02*
D03*
X11358D02*
D03*
X7224D02*
D03*
X7815D02*
D03*
X3642D02*
D03*
X3051D02*
D03*
X31575Y10197D02*
D03*
X30984D02*
D03*
X27323D02*
D03*
X26732D02*
D03*
X22441D02*
D03*
X23031D02*
D03*
X43593Y2756D02*
D03*
X44183D02*
D03*
X43593Y1732D02*
D03*
X44183D02*
D03*
X43593Y10197D02*
D03*
X44183D02*
D03*
X43593Y11142D02*
D03*
X44183D02*
D03*
X34547Y10157D02*
D03*
X35138D02*
D03*
X18740Y10197D02*
D03*
X18150D02*
D03*
D16*
X34528Y4744D02*
D03*
Y7874D02*
D03*
X36299Y4744D02*
D03*
Y7874D02*
D03*
X43819Y4744D02*
D03*
Y7874D02*
D03*
X45591Y4744D02*
D03*
Y7874D02*
D03*
D17*
X41594Y9449D02*
D03*
X38465D02*
D03*
X41594Y11220D02*
D03*
X38465D02*
D03*
Y7165D02*
D03*
X41594D02*
D03*
X38465Y5394D02*
D03*
X41594D02*
D03*
Y1496D02*
D03*
X38465D02*
D03*
X41594Y3268D02*
D03*
X38465D02*
D03*
D18*
X19646Y5276D02*
D03*
Y6260D02*
D03*
X17480Y5276D02*
D03*
Y6260D02*
D03*
X19646Y7244D02*
D03*
X17480D02*
D03*
X21772D02*
D03*
X23937D02*
D03*
X21772Y6260D02*
D03*
Y5276D02*
D03*
X23937Y6260D02*
D03*
Y5276D02*
D03*
X28228D02*
D03*
Y6260D02*
D03*
X26063Y5276D02*
D03*
Y6260D02*
D03*
X28228Y7244D02*
D03*
X26063D02*
D03*
X30315D02*
D03*
X32480D02*
D03*
X30315Y6260D02*
D03*
Y5276D02*
D03*
X32480Y6260D02*
D03*
Y5276D02*
D03*
D19*
X3031Y7953D02*
D03*
Y9685D02*
D03*
X1772Y7953D02*
D03*
Y9685D02*
D03*
X5945D02*
D03*
Y7953D02*
D03*
X7205Y9685D02*
D03*
Y7953D02*
D03*
X11339D02*
D03*
Y9685D02*
D03*
X10079Y7953D02*
D03*
Y9685D02*
D03*
X14094D02*
D03*
Y7953D02*
D03*
X15354Y9685D02*
D03*
Y7953D02*
D03*
Y2677D02*
D03*
Y4409D02*
D03*
X14094Y2677D02*
D03*
Y4409D02*
D03*
X10079D02*
D03*
Y2677D02*
D03*
X11339Y4409D02*
D03*
Y2677D02*
D03*
X7205D02*
D03*
Y4409D02*
D03*
X5945Y2677D02*
D03*
Y4409D02*
D03*
X1772D02*
D03*
Y2677D02*
D03*
X3031Y4409D02*
D03*
Y2677D02*
D03*
M02*
