M48
;Layer_Color=9474304
;FILE_FORMAT=2:4
INCH,LZ
;TYPE=PLATED
T1F00S00C0.0280
T2F00S00C0.0315
T3F00S00C0.0394
T4F00S00C0.0472
T5F00S00C0.0700
T6F00S00C0.0787
T7F00S00C0.0902
T8F00S00C0.0984
%
T01
X000787Y004409
X005
X004764Y001496
X008898
X009134Y004409
X01315
X013071Y001496
X017087
X019646Y003976
X023937
X028228
X03248
X044882Y002756
Y001732
Y010197
Y011142
X035866Y010157
X016417Y00748
X013071Y006772
X01315Y009685
X009134
X008898Y006772
X004764
X005Y009685
X000827
X022362Y031417
X02811Y036122
T02
X018386Y005276
X019646
X022677
X023937
X026969
X028228
X03122
X03248
Y00626
Y007244
X03122
Y00626
X028228
Y007244
X026969
Y00626
X023937
Y007244
X022677
Y00626
X019646
Y007244
X018386
Y00626
X024213Y034409
Y035669
X025197
X026181
Y034409
X025197
T03
X024209Y031929
X025209
X026209
T04
X017693Y026693
X018693
X019693
X020693
X021693
X022693
X023693
X024693
X018032Y031969
Y033937
X030701Y036039
X031701
X032701
X033701
X034701
X035701
X036701
X037701
X038701
X039701
X040701
Y030039
X039701
X038701
X037701
X036701
X035701
X034701
X033701
X032701
X031701
X030701
X030693Y026693
X031693
X032693
X029693
X028693
X027693
X026693
X025693
X041701Y030039
X042701
X043701
X044701
Y036039
X043701
X042701
X041701
T05
X029701Y030039
Y036039
X045701
Y030039
T06
X004646Y033858
X009646
T07
X00278Y018673
Y029291
X01165Y02398
T08
X045055Y014488
X015528
Y026693
X045055
M30
