G04*
G04 #@! TF.GenerationSoftware,Altium Limited,Altium Designer,19.1.8 (144)*
G04*
G04 Layer_Physical_Order=1*
G04 Layer_Color=255*
%FSLAX24Y24*%
%MOIN*%
G70*
G01*
G75*
%ADD10C,0.0100*%
%ADD12R,0.0512X0.0650*%
%ADD13R,0.0472X0.0472*%
%ADD14R,0.0630X0.0591*%
%ADD15R,0.0335X0.0335*%
%ADD16R,0.0512X0.0610*%
%ADD17R,0.0610X0.0512*%
%ADD18R,0.0984X0.0472*%
%ADD19R,0.0600X0.0600*%
%ADD37C,0.0500*%
%ADD38C,0.0300*%
%ADD39C,0.0335*%
%ADD40C,0.0472*%
%ADD41C,0.0787*%
%ADD42R,0.0709X0.0709*%
%ADD43C,0.0709*%
%ADD44C,0.1220*%
%ADD45C,0.1024*%
%ADD46R,0.1024X0.1024*%
%ADD47R,0.0630X0.0630*%
%ADD48C,0.0630*%
%ADD49C,0.0500*%
D10*
X9626Y33878D02*
X9646Y33858D01*
X35185Y28335D02*
Y30261D01*
X32047Y25197D02*
X35185Y28335D01*
X17835Y25197D02*
X32047D01*
X35701Y28063D02*
Y30039D01*
X32362Y24724D02*
X35701Y28063D01*
X28819Y24724D02*
X32362D01*
X41110Y30630D02*
X41701Y30039D01*
X35554Y30630D02*
X41110D01*
X35185Y30261D02*
X35554Y30630D01*
X42185Y17795D02*
Y30453D01*
X41693Y30945D02*
X42185Y30453D01*
X31606Y30945D02*
X41693D01*
X34547Y10157D02*
X42185Y17795D01*
X43228Y11506D02*
Y29567D01*
Y11506D02*
X43593Y11142D01*
X43228Y29567D02*
X43701Y30039D01*
X40356Y12167D02*
X42701Y14512D01*
Y30039D01*
X34547Y7894D02*
Y10157D01*
X41545Y5394D02*
X41594D01*
X34528Y7874D02*
X34547Y7894D01*
X16575Y26457D02*
X17835Y25197D01*
X16575Y26457D02*
Y32480D01*
X18032Y33937D01*
X43898Y29236D02*
X44701Y30039D01*
X43898Y13780D02*
Y29236D01*
X35614Y33268D02*
X38185Y35839D01*
X26209Y33268D02*
X35614D01*
X35953Y34291D02*
X37701Y36039D01*
X24213Y34291D02*
X35953D01*
X35465Y34803D02*
X36701Y36039D01*
X24213Y34803D02*
X35465D01*
X38583Y36693D02*
X43047D01*
X38185Y36295D02*
X38583Y36693D01*
X38185Y35839D02*
Y36295D01*
X23386Y33465D02*
X24213Y34291D01*
X23386Y27386D02*
Y33465D01*
X22693Y26693D02*
X23386Y27386D01*
X22955Y33545D02*
X24213Y34803D01*
X22955Y28955D02*
Y33545D01*
X20693Y26693D02*
X22955Y28955D01*
X24209Y26492D02*
Y30118D01*
X24209Y30118D01*
Y33268D01*
X24209Y26492D02*
X24492Y26209D01*
X30894D01*
X28583Y27803D02*
Y30945D01*
Y27803D02*
X29693Y26693D01*
X28583Y30945D02*
X29409Y31772D01*
X30894Y26209D02*
X31209Y26524D01*
Y26894D01*
X31701Y27386D01*
Y30039D01*
X21969Y28969D02*
Y29311D01*
X19693Y26693D02*
X21969Y28969D01*
X30701Y30039D02*
X31606Y30945D01*
X35496Y32835D02*
X38701Y36039D01*
X28898Y32835D02*
X35496D01*
X27693Y31630D02*
X28898Y32835D01*
X29409Y31772D02*
X36433D01*
X40701Y36039D01*
X35984Y32323D02*
X39701Y36039D01*
X29173Y32323D02*
X35984D01*
X28142Y31291D02*
X29173Y32323D01*
X36921Y31260D02*
X41701Y36039D01*
X29685Y31260D02*
X36921D01*
X28976Y30551D02*
X29685Y31260D01*
X41545Y1496D02*
X41594D01*
X41545Y9449D02*
X41594D01*
Y1496D02*
X41644D01*
X45591Y7825D02*
Y7874D01*
Y7923D01*
X5276Y11929D02*
X16024D01*
X28819Y24724D01*
X18740Y7177D02*
X18740Y7177D01*
X19646Y5197D02*
Y5276D01*
X32480Y5197D02*
Y5276D01*
X19606Y2677D02*
Y2704D01*
X32224Y6260D02*
X32480D01*
X27972D02*
X28228D01*
X23681D02*
X23937D01*
X19390D02*
X19646D01*
X32480Y7244D02*
X32736D01*
X28228D02*
X28484D01*
X23937D02*
X24193D01*
X19646D02*
X19902D01*
X3642Y1496D02*
X3642Y1496D01*
X7815Y1496D02*
X7815Y1496D01*
X11949Y1496D02*
X11949Y1496D01*
X15965Y1496D02*
X15965Y1496D01*
X44183Y10197D02*
X44183Y10197D01*
X43504Y8622D02*
X44685D01*
X42913Y8031D02*
X43504Y8622D01*
X42913Y4537D02*
Y8031D01*
X45709Y9646D02*
Y11969D01*
X44685Y8622D02*
X45709Y9646D01*
X46654Y34087D02*
X46654Y9921D01*
X44606Y7874D02*
X46654Y9921D01*
X43819Y7874D02*
X44606D01*
X44183Y2756D02*
X44183Y2756D01*
X43898Y13780D02*
X45709Y11969D01*
X44173Y11152D02*
X44183Y11142D01*
X15965Y6772D02*
X15965Y6772D01*
X15354Y6791D02*
X15374Y6772D01*
X11339Y7953D02*
X11358Y7933D01*
X14646Y8976D02*
X15354Y9685D01*
X11550Y8976D02*
X14646D01*
X10776Y8203D02*
X11550Y8976D01*
X7205Y6791D02*
X7224Y6772D01*
X3031Y6791D02*
X3051Y6772D01*
X3031Y1516D02*
X3051Y1496D01*
X11339Y1516D02*
X11358Y1496D01*
X15354Y1516D02*
X15374Y1496D01*
X43047Y36693D02*
X43701Y36039D01*
X43593Y9163D02*
Y10197D01*
X41850Y7420D02*
X43593Y9163D01*
X41644Y7165D02*
X41850Y7371D01*
Y7420D01*
X43150Y3199D02*
Y7156D01*
Y3199D02*
X43593Y2756D01*
X41644Y3268D02*
X43179Y1732D01*
X41594Y3268D02*
X41644D01*
X43179Y1732D02*
X43593D01*
X14055Y9724D02*
X14094Y9685D01*
X3031D02*
X5276Y11929D01*
X41102Y10197D02*
X43593D01*
X40356Y10943D02*
X41102Y10197D01*
X40356Y10943D02*
Y12167D01*
X41673Y11142D02*
X43593D01*
X41594Y11220D02*
X41673Y11142D01*
X43150Y7156D02*
X43819Y7825D01*
Y7874D01*
X41594Y7165D02*
X41644D01*
Y3268D02*
X42913Y4537D01*
X38415Y9449D02*
X38465D01*
X10329Y8203D02*
X10776D01*
X10079Y7953D02*
X10329Y8203D01*
X15138Y2461D02*
X15354Y2677D01*
X10472Y8819D02*
X11339Y9685D01*
X7259Y8819D02*
X10472D01*
X6643Y8203D02*
X7259Y8819D01*
X6195Y8203D02*
X6643D01*
X5945Y7953D02*
X6195Y8203D01*
X6339Y8819D02*
X7205Y9685D01*
X3086Y8819D02*
X6339D01*
X2469Y8203D02*
X3086Y8819D01*
X2022Y8203D02*
X2469D01*
X1772Y7953D02*
X2022Y8203D01*
X4213Y4409D02*
X5945Y2677D01*
X3031Y4409D02*
X4213D01*
X12362D02*
X14094Y2677D01*
X11339Y4409D02*
X12362D01*
X8346D02*
X10079Y2677D01*
X7205Y4409D02*
X8346D01*
X14094Y6220D02*
Y7953D01*
Y6220D02*
X15354Y4961D01*
Y4409D02*
Y4961D01*
X3051Y1496D02*
X3096Y1541D01*
X44701Y36039D02*
X46654Y34087D01*
X28976Y28409D02*
Y30551D01*
Y28409D02*
X30693Y26693D01*
X28142Y27244D02*
Y31291D01*
X27693Y26693D02*
Y31630D01*
X28142Y27244D02*
X28693Y26693D01*
D12*
X8642Y36220D02*
D03*
X9626D02*
D03*
D13*
X21575Y30709D02*
D03*
X22362D02*
D03*
D14*
X21969Y29429D02*
D03*
D15*
X3051Y6772D02*
D03*
X3642D02*
D03*
X7815D02*
D03*
X7224D02*
D03*
X11358D02*
D03*
X11949D02*
D03*
X15965D02*
D03*
X15374D02*
D03*
Y1496D02*
D03*
X15965D02*
D03*
X11949D02*
D03*
X11358D02*
D03*
X7224D02*
D03*
X7815D02*
D03*
X3642D02*
D03*
X3051D02*
D03*
X31575Y10197D02*
D03*
X30984D02*
D03*
X27323D02*
D03*
X26732D02*
D03*
X22441D02*
D03*
X23031D02*
D03*
X43593Y2756D02*
D03*
X44183D02*
D03*
X43593Y1732D02*
D03*
X44183D02*
D03*
X43593Y10197D02*
D03*
X44183D02*
D03*
X43593Y11142D02*
D03*
X44183D02*
D03*
X34547Y10157D02*
D03*
X35138D02*
D03*
X18740Y10197D02*
D03*
X18150D02*
D03*
D16*
X34528Y4744D02*
D03*
Y7874D02*
D03*
X36299Y4744D02*
D03*
Y7874D02*
D03*
X43819Y4744D02*
D03*
Y7874D02*
D03*
X45591Y4744D02*
D03*
Y7874D02*
D03*
D17*
X41594Y9449D02*
D03*
X38465D02*
D03*
X41594Y11220D02*
D03*
X38465D02*
D03*
Y7165D02*
D03*
X41594D02*
D03*
X38465Y5394D02*
D03*
X41594D02*
D03*
Y1496D02*
D03*
X38465D02*
D03*
X41594Y3268D02*
D03*
X38465D02*
D03*
D18*
X19646Y5276D02*
D03*
Y6260D02*
D03*
X17480Y5276D02*
D03*
Y6260D02*
D03*
X19646Y7244D02*
D03*
X17480D02*
D03*
X21772D02*
D03*
X23937D02*
D03*
X21772Y6260D02*
D03*
Y5276D02*
D03*
X23937Y6260D02*
D03*
Y5276D02*
D03*
X28228D02*
D03*
Y6260D02*
D03*
X26063Y5276D02*
D03*
Y6260D02*
D03*
X28228Y7244D02*
D03*
X26063D02*
D03*
X30315D02*
D03*
X32480D02*
D03*
X30315Y6260D02*
D03*
Y5276D02*
D03*
X32480Y6260D02*
D03*
Y5276D02*
D03*
D19*
X3031Y7953D02*
D03*
Y9685D02*
D03*
X1772Y7953D02*
D03*
Y9685D02*
D03*
X5945D02*
D03*
Y7953D02*
D03*
X7205Y9685D02*
D03*
Y7953D02*
D03*
X11339D02*
D03*
Y9685D02*
D03*
X10079Y7953D02*
D03*
Y9685D02*
D03*
X14094D02*
D03*
Y7953D02*
D03*
X15354Y9685D02*
D03*
Y7953D02*
D03*
Y2677D02*
D03*
Y4409D02*
D03*
X14094Y2677D02*
D03*
Y4409D02*
D03*
X10079D02*
D03*
Y2677D02*
D03*
X11339Y4409D02*
D03*
Y2677D02*
D03*
X7205D02*
D03*
Y4409D02*
D03*
X5945Y2677D02*
D03*
Y4409D02*
D03*
X1772D02*
D03*
Y2677D02*
D03*
X3031Y4409D02*
D03*
Y2677D02*
D03*
D37*
X9626Y33878D02*
Y36220D01*
X7913D02*
X8642D01*
X12756Y36969D02*
X30197D01*
X19646Y5197D02*
X19646Y5197D01*
Y3976D02*
Y5197D01*
X23937Y3976D02*
Y5197D01*
X28228Y3976D02*
Y5197D01*
X32480Y5197D02*
X32480Y5197D01*
X32480Y3976D02*
Y5197D01*
X827Y9685D02*
X1772D01*
X5000D02*
X5945D01*
X9134D02*
X10079D01*
X13150D02*
X14094D01*
X13150Y4409D02*
X14094D01*
X9134D02*
X10079D01*
X5000D02*
X5945D01*
X787D02*
X1772D01*
X30701Y36039D02*
Y36465D01*
X30197Y36969D02*
X30701Y36465D01*
X9646Y33858D02*
X12756Y36969D01*
D38*
X21575Y32953D02*
X23976Y35354D01*
X33016D01*
X36998Y8622D02*
X40719D01*
X36299Y7923D02*
X36998Y8622D01*
X18693Y26693D02*
Y27827D01*
X21575Y30709D01*
Y32953D01*
X45591Y7825D02*
X47126Y6289D01*
Y2165D02*
Y6289D01*
X45630Y669D02*
X47126Y2165D01*
X40719Y669D02*
X41545Y1496D01*
X37874Y669D02*
X40719D01*
X37205Y1339D02*
X37874Y669D01*
X42470D02*
X45630D01*
X41644Y1496D02*
X42470Y669D01*
X35866Y2677D02*
X37205Y1339D01*
Y3346D01*
X32402Y2677D02*
X35866D01*
X37205Y3346D02*
X38110Y4252D01*
X40404D01*
X37205Y3346D02*
Y6919D01*
X36299Y7825D02*
X37205Y6919D01*
X36299Y7874D02*
Y7923D01*
Y7825D02*
Y7874D01*
X40719Y8622D02*
X41545Y9449D01*
X40404Y4252D02*
X41545Y5394D01*
X47126Y9459D02*
X47126Y36142D01*
X45591Y7923D02*
X47126Y9459D01*
X36701Y28157D02*
Y30039D01*
X31850Y23307D02*
X36701Y28157D01*
X39701Y20016D02*
Y30039D01*
X30984Y11299D02*
X39701Y20016D01*
X30984Y10197D02*
Y11299D01*
X30118Y23307D02*
X31850D01*
X18150Y11339D02*
X30118Y23307D01*
X18150Y10197D02*
Y11339D01*
X31693Y26102D02*
Y26693D01*
X31299Y25709D02*
X31693Y26102D01*
X19677Y25709D02*
X31299D01*
X22441Y11417D02*
X37701Y26677D01*
X22441Y10197D02*
Y11417D01*
X37701Y26677D02*
Y30039D01*
X38701Y23346D02*
Y30039D01*
X26732Y11378D02*
X38701Y23346D01*
X26732Y10197D02*
Y11378D01*
X18740Y6909D02*
Y7177D01*
X18740Y7177D02*
Y10197D01*
X18740Y6909D02*
X19390Y6260D01*
X23031Y6909D02*
Y10197D01*
Y6909D02*
X23681Y6260D01*
X19902Y7244D02*
X20748Y6398D01*
Y3846D02*
Y6398D01*
X19606Y2704D02*
X20748Y3846D01*
X19606Y2677D02*
X23740D01*
X28346D01*
X25000Y3937D02*
Y6437D01*
X23740Y2677D02*
X25000Y3937D01*
X24193Y7244D02*
X25000Y6437D01*
X28484Y7244D02*
X29291Y6437D01*
Y3622D02*
Y6437D01*
X28346Y2677D02*
X29291Y3622D01*
X28346Y2677D02*
X32402D01*
X27323Y6909D02*
Y10197D01*
X31575Y6909D02*
Y10197D01*
X31575Y10197D01*
X27323Y6909D02*
X27972Y6260D01*
X15354Y2677D02*
X19606D01*
X32402D02*
X33622Y3898D01*
X32736Y7244D02*
X33622Y6358D01*
Y3898D02*
Y6358D01*
X31575Y6909D02*
X32224Y6260D01*
X16575Y3898D02*
Y4646D01*
X15374Y5846D02*
X16575Y4646D01*
X15374Y5846D02*
Y6772D01*
X33016Y35354D02*
X33701Y36039D01*
X46181Y37087D02*
X47126Y36142D01*
X34748Y37087D02*
X46181D01*
X33701Y36039D02*
X34748Y37087D01*
X15354Y2677D02*
X16575Y3898D01*
X15354Y6791D02*
Y7953D01*
X11358Y6772D02*
Y7933D01*
X14685Y8622D02*
X15354Y7953D01*
X12008Y8622D02*
X14685D01*
X11339Y7953D02*
X12008Y8622D01*
X7205Y6791D02*
Y7953D01*
X3031Y6791D02*
Y7953D01*
X3031Y1516D02*
Y2677D01*
X7205Y1516D02*
Y2677D01*
X11339Y1516D02*
Y2677D01*
X15354Y1516D02*
Y2677D01*
X18693Y26693D02*
X19677Y25709D01*
X7795Y7362D02*
X10748D01*
X11339Y7953D01*
X7205D02*
X7795Y7362D01*
X6614D02*
X7205Y7953D01*
X3622Y7362D02*
X6614D01*
X3031Y7953D02*
X3622Y7362D01*
Y2087D02*
X6614D01*
X3031Y2677D02*
X3622Y2087D01*
X6614D02*
X7205Y2677D01*
X7795Y2087D02*
X10748D01*
X7205Y2677D02*
X7795Y2087D01*
X10748D02*
X11339Y2677D01*
X14764Y2087D02*
X15138Y2461D01*
X11339Y2677D02*
X11929Y2087D01*
X14764D01*
D39*
X35138Y10157D02*
X35866D01*
X3642Y6772D02*
X4331D01*
X7815D02*
X8465D01*
X11949D02*
X12638D01*
X3642Y1496D02*
X4331D01*
X7815D02*
X8543D01*
X11949D02*
X12638D01*
X15965D02*
X16654D01*
X44183Y10197D02*
X44882D01*
X44183Y11142D02*
X44882D01*
X44183Y2756D02*
X44882D01*
X44183Y1732D02*
X44882D01*
X15965Y6102D02*
Y6772D01*
D40*
X22362Y30709D02*
Y31417D01*
D41*
X29701Y30039D02*
D03*
X45701D02*
D03*
Y36039D02*
D03*
X29701D02*
D03*
D42*
X30701Y30039D02*
D03*
X17693Y26693D02*
D03*
X18032Y33937D02*
D03*
D43*
X31701Y30039D02*
D03*
X32701D02*
D03*
X33701D02*
D03*
X34701D02*
D03*
X35701D02*
D03*
X36701D02*
D03*
X37701D02*
D03*
X38701D02*
D03*
X39701D02*
D03*
X40701D02*
D03*
X41701D02*
D03*
X42701D02*
D03*
X43701D02*
D03*
X44701D02*
D03*
Y36039D02*
D03*
X43701D02*
D03*
X42701D02*
D03*
X41701D02*
D03*
X40701D02*
D03*
X39701D02*
D03*
X38701D02*
D03*
X37701D02*
D03*
X36701D02*
D03*
X35701D02*
D03*
X34701D02*
D03*
X33701D02*
D03*
X32701D02*
D03*
X31701D02*
D03*
X30701D02*
D03*
X32693Y26693D02*
D03*
X31693D02*
D03*
X30693D02*
D03*
X29693D02*
D03*
X28693D02*
D03*
X27693D02*
D03*
X26693D02*
D03*
X25693D02*
D03*
X24693D02*
D03*
X23693D02*
D03*
X22693D02*
D03*
X21693D02*
D03*
X20693D02*
D03*
X19693D02*
D03*
X18693D02*
D03*
X18032Y31969D02*
D03*
D44*
X45055Y14488D02*
D03*
Y26693D02*
D03*
X15528Y14488D02*
D03*
Y26693D02*
D03*
D45*
X4646Y33858D02*
D03*
D46*
X9646D02*
D03*
D47*
X24209Y33268D02*
D03*
D48*
X25209D02*
D03*
X26209D02*
D03*
D49*
X7913Y36220D02*
D03*
X35866Y10157D02*
D03*
X22362Y31417D02*
D03*
X32480Y3976D02*
D03*
X23937D02*
D03*
X827Y9685D02*
D03*
X5000D02*
D03*
X9134D02*
D03*
X4331Y6772D02*
D03*
X8465D02*
D03*
X12638D02*
D03*
X13150Y4409D02*
D03*
X9134D02*
D03*
X5000D02*
D03*
X787D02*
D03*
X4331Y1496D02*
D03*
X8543D02*
D03*
X12638D02*
D03*
X16654D02*
D03*
X44882Y10197D02*
D03*
Y2756D02*
D03*
X19646Y3976D02*
D03*
X28228D02*
D03*
X15965Y6102D02*
D03*
X13150Y9685D02*
D03*
X44882Y11142D02*
D03*
Y1732D02*
D03*
M02*
