G04*
G04 #@! TF.GenerationSoftware,Altium Limited,Altium Designer,19.1.8 (144)*
G04*
G04 Layer_Color=16711935*
%FSLAX24Y24*%
%MOIN*%
G70*
G01*
G75*
%ADD28C,0.0867*%
%ADD29R,0.0789X0.0789*%
%ADD30C,0.0789*%
%ADD31C,0.1300*%
%ADD32C,0.1104*%
%ADD33R,0.1104X0.1104*%
%ADD34R,0.0710X0.0710*%
%ADD35C,0.0710*%
%ADD36C,0.0580*%
D28*
X29701Y30039D02*
D03*
X45701D02*
D03*
Y36039D02*
D03*
X29701D02*
D03*
D29*
X30701Y30039D02*
D03*
X17693Y26693D02*
D03*
X18032Y33937D02*
D03*
D30*
X31701Y30039D02*
D03*
X32701D02*
D03*
X33701D02*
D03*
X34701D02*
D03*
X35701D02*
D03*
X36701D02*
D03*
X37701D02*
D03*
X38701D02*
D03*
X39701D02*
D03*
X40701D02*
D03*
X41701D02*
D03*
X42701D02*
D03*
X43701D02*
D03*
X44701D02*
D03*
Y36039D02*
D03*
X43701D02*
D03*
X42701D02*
D03*
X41701D02*
D03*
X40701D02*
D03*
X39701D02*
D03*
X38701D02*
D03*
X37701D02*
D03*
X36701D02*
D03*
X35701D02*
D03*
X34701D02*
D03*
X33701D02*
D03*
X32701D02*
D03*
X31701D02*
D03*
X30701D02*
D03*
X32693Y26693D02*
D03*
X31693D02*
D03*
X30693D02*
D03*
X29693D02*
D03*
X28693D02*
D03*
X27693D02*
D03*
X26693D02*
D03*
X25693D02*
D03*
X24693D02*
D03*
X23693D02*
D03*
X22693D02*
D03*
X21693D02*
D03*
X20693D02*
D03*
X19693D02*
D03*
X18693D02*
D03*
X18032Y31969D02*
D03*
D31*
X45055Y14488D02*
D03*
Y26693D02*
D03*
X15528Y14488D02*
D03*
Y26693D02*
D03*
D32*
X4646Y33858D02*
D03*
D33*
X9646D02*
D03*
D34*
X24209Y33268D02*
D03*
D35*
X25209D02*
D03*
X26209D02*
D03*
D36*
X7913Y36220D02*
D03*
X35866Y10157D02*
D03*
X22362Y31417D02*
D03*
X32480Y3976D02*
D03*
X23937D02*
D03*
X827Y9685D02*
D03*
X5000D02*
D03*
X9134D02*
D03*
X4331Y6772D02*
D03*
X8465D02*
D03*
X12638D02*
D03*
X13150Y4409D02*
D03*
X9134D02*
D03*
X5000D02*
D03*
X787D02*
D03*
X4331Y1496D02*
D03*
X8543D02*
D03*
X12638D02*
D03*
X16654D02*
D03*
X44882Y10197D02*
D03*
Y2756D02*
D03*
X19646Y3976D02*
D03*
X28228D02*
D03*
X15965Y6102D02*
D03*
X13150Y9685D02*
D03*
X44882Y11142D02*
D03*
Y1732D02*
D03*
M02*
